<svg width="200" height="200" viewBox="0 0 64 64" fill="none" xmlns="http://www.w3.org/2000/svg">
<g clip-path="url(#clip0_4_34460)">
<g filter="url(#filter0_d_4_34460)">
<path d="M29.526 9.22017C29.2598 9.117 28.9685 9.27508 28.8487 9.53414C28.2911 10.7398 26.9746 11.4688 25.6048 11.2273C24.235 10.9857 23.2473 9.85039 23.1357 8.52678C23.1117 8.24237 22.892 7.99418 22.6067 8.0001C22.3208 8.00604 22.1138 8.26385 22.1023 8.54951C22.0484 9.87666 21.1112 11.0539 19.7533 11.355C18.3958 11.6559 17.0493 10.9856 16.4393 9.80622C16.3081 9.55239 16.0103 9.40695 15.7488 9.52229C15.4877 9.63748 15.3947 9.95455 15.493 10.2224C15.9505 11.4689 15.535 12.9146 14.396 13.7121C13.257 14.5097 11.7564 14.4056 10.7416 13.5494C10.5235 13.3654 10.1937 13.3443 9.9962 13.5503C9.79838 13.7565 9.83318 14.0861 10.0268 14.2963C10.9264 15.2728 11.0957 16.7674 10.3487 17.94C9.60133 19.1131 8.17451 19.5912 6.90899 19.1878C6.63661 19.101 6.32358 19.2073 6.22024 19.4739C6.11708 19.74 6.27515 20.0313 6.53419 20.1511C7.73982 20.7087 8.46888 22.0252 8.22734 23.395C7.98581 24.7647 6.85055 25.7524 5.527 25.8641C5.24248 25.8881 4.99417 26.1079 5.0001 26.3934C5.00604 26.6793 5.26395 26.8864 5.54972 26.898C6.87677 26.9519 8.05391 27.8891 8.35494 29.247C8.65588 30.6044 7.98557 31.9509 6.80627 32.5609C6.55244 32.6922 6.40701 32.99 6.52236 33.2514C6.63754 33.5125 6.95461 33.6055 7.2225 33.5072C8.46897 33.0497 9.91466 33.4652 10.7122 34.6042C11.5097 35.7432 11.4057 37.2438 10.5495 38.2586C10.3655 38.4767 10.3444 38.8065 10.5504 39.004C10.7566 39.2018 11.0862 39.167 11.2964 38.9734C12.2729 38.0738 13.7675 37.9044 14.9402 38.6515C16.1132 39.3988 16.5913 40.8256 16.188 42.0911C16.1012 42.3635 16.2075 42.6766 16.4741 42.7799C16.7402 42.8831 17.0315 42.725 17.1513 42.466C17.7089 41.2603 19.0254 40.5313 20.3952 40.7728C21.765 41.0144 22.7527 42.1497 22.8643 43.4733C22.8883 43.7577 23.108 44.0059 23.3933 44C23.6792 43.994 23.8862 43.7362 23.8978 43.4506C23.9516 42.1234 24.8888 40.9462 26.2467 40.6451C27.6042 40.3442 28.9507 41.0145 29.5606 42.1938C29.6919 42.4477 29.9898 42.5931 30.2513 42.4778C30.5124 42.3626 30.6054 42.0454 30.5071 41.7775C30.0496 40.531 30.465 39.0853 31.604 38.2878C32.7431 37.4902 34.2437 37.5943 35.2585 38.4505C35.4766 38.6346 35.8064 38.6556 36.004 38.4496C36.2018 38.2434 36.167 37.9137 35.9734 37.7035C35.0737 36.727 34.9044 35.2324 35.6515 34.0597C36.3988 32.8867 37.8256 32.4086 39.0911 32.8119C39.3635 32.8987 39.6766 32.7924 39.7799 32.5258C39.8831 32.2597 39.725 31.9683 39.4659 31.8485C38.2603 31.2909 37.5313 29.9745 37.7728 28.6046C38.0144 27.2348 39.1498 26.247 40.4734 26.1355C40.7577 26.1116 41.0058 25.8919 40.9999 25.6067C40.994 25.3209 40.7363 25.114 40.4507 25.1025C39.1235 25.0487 37.9461 24.1115 37.645 22.7535C37.3441 21.396 38.0144 20.0495 39.1938 19.4395C39.4477 19.3082 39.5931 19.0104 39.4777 18.7489C39.3626 18.4878 39.0454 18.3948 38.7775 18.4931C37.531 18.9506 36.0853 18.5351 35.2878 17.3961C34.4902 16.2571 34.5943 14.7565 35.4505 13.7416C35.6346 13.5235 35.6557 13.1937 35.4497 12.9961C35.2434 12.7983 34.9138 12.8331 34.7036 13.0268C33.727 13.9263 32.2325 14.0957 31.0598 13.3486C29.8868 12.6013 29.4087 11.1745 29.812 9.90896C29.8989 9.63657 29.7925 9.32351 29.526 9.22017Z" fill="url(#paint0_radial_4_34460)"/>
</g>
<g filter="url(#filter1_i_4_34460)">
<circle cx="23" cy="25.9995" r="12" fill="url(#paint1_linear_4_34460)"/>
</g>
<g filter="url(#filter2_ii_4_34460)">
<circle cx="23" cy="25.9995" r="12" fill="url(#paint2_linear_4_34460)"/>
</g>
<g filter="url(#filter3_f_4_34460)">
<ellipse cx="23" cy="20.9995" rx="7" ry="5" fill="url(#paint3_linear_4_34460)" style="mix-blend-mode:soft-light"/>
</g>
<g filter="url(#filter4_d_4_34460)">
<path fill-rule="evenodd" clip-rule="evenodd" d="M53 29.5121C53 29.5081 53 29.504 53 29.5C53 22.5964 47.4036 17 40.5 17C35.1094 17 30.5158 20.4122 28.7613 25.1945C28.1946 25.0672 27.6051 25 27 25C22.5817 25 19 28.5817 19 33C19 33.0236 19.0001 33.0473 19.0003 33.0708C15.6079 33.5559 13 36.4734 13 40C13 43.866 16.134 47 20 47H50C54.9706 47 59 42.9706 59 38C59 34.0813 56.4956 30.7476 53 29.5121Z" fill="#64748B"/>
</g>
<g filter="url(#filter5_ii_4_34460)">
<path fill-rule="evenodd" clip-rule="evenodd" d="M59 38C59 42.9706 54.9706 47 50 47H20C16.134 47 13 43.866 13 40C13 36.134 16.134 33 20 33C22.7924 33 25.2029 34.6351 26.3264 37H41.0549C41.5524 32.5 45.3674 29 50 29C54.9706 29 59 33.0294 59 38Z" fill="#F1F5F9"/>
</g>
<g filter="url(#filter6_f_4_34460)">
<circle cx="20" cy="40" r="5" fill="url(#paint4_linear_4_34460)" style="mix-blend-mode:soft-light"/>
</g>
<g filter="url(#filter7_i_4_34460)">
<circle cx="27" cy="33" r="8" fill="#F1F5F9"/>
</g>
<g filter="url(#filter8_f_4_34460)">
<ellipse cx="27" cy="32" rx="6" ry="5" fill="url(#paint5_linear_4_34460)" style="mix-blend-mode:soft-light"/>
</g>
<g filter="url(#filter9_f_4_34460)">
<circle cx="51" cy="37" r="5" fill="url(#paint6_linear_4_34460)" style="mix-blend-mode:soft-light"/>
</g>
<g filter="url(#filter10_i_4_34460)">
<circle cx="40.5" cy="29.5" r="12.5" fill="#F1F5F9"/>
</g>
<g filter="url(#filter11_f_4_34460)">
<ellipse cx="40" cy="24" rx="7" ry="5" fill="url(#paint7_linear_4_34460)" style="mix-blend-mode:soft-light"/>
</g>
<g filter="url(#filter12_i_4_34460)">
<ellipse cx="36" cy="37.5" rx="9" ry="6.5" fill="url(#paint8_linear_4_34460)"/>
</g>
<g filter="url(#filter13_f_4_34460)">
<ellipse cx="36" cy="37.5" rx="7" ry="4.5" fill="url(#paint9_linear_4_34460)" style="mix-blend-mode:soft-light"/>
</g>
<g style="mix-blend-mode:color" filter="url(#filter14_f_4_34460)">
<path fill-rule="evenodd" clip-rule="evenodd" d="M37.5 17.5C36.1326 17.8419 32.9038 20.3554 32 21.4851C30.8579 22.9128 29.945 25.0956 29.5 26.8755C27.6166 26.3374 25.2456 26.5966 23.3017 27.9851C21.3578 29.3736 20.1614 31.6148 20.5 33.9851C18.8441 34.3163 17.3075 34.4391 16 35.4851C14.1525 36.9631 13 38.5875 13 39.4851C13 38.3864 13.5316 35.8337 15.6662 34.1119C16.6868 33.1023 17.625 32.8531 19 32.4851C18.961 31.0122 19.8387 27.8921 22.5 25.9851C24.1146 24.7 26.5256 24.5932 28.5 24.9851C28.8255 24.0662 29.748 22.3747 31.1096 20.6727C32.6049 18.8036 35.2081 18.073 37.5 17.5Z" fill="#FFCC00"/>
</g>
</g>
<defs>
<filter id="filter0_d_4_34460" x="-5" y="-2" width="56" height="56.0001" filterUnits="userSpaceOnUse" color-interpolation-filters="sRGB">
<feFlood flood-opacity="0" result="BackgroundImageFix"/>
<feColorMatrix in="SourceAlpha" type="matrix" values="0 0 0 0 0 0 0 0 0 0 0 0 0 0 0 0 0 0 127 0" result="hardAlpha"/>
<feOffset/>
<feGaussianBlur stdDeviation="5"/>
<feComposite in2="hardAlpha" operator="out"/>
<feColorMatrix type="matrix" values="0 0 0 0 0.980392 0 0 0 0 0.8 0 0 0 0 0.0823529 0 0 0 0.7 0"/>
<feBlend mode="normal" in2="BackgroundImageFix" result="effect1_dropShadow_4_34460"/>
<feBlend mode="normal" in="SourceGraphic" in2="effect1_dropShadow_4_34460" result="shape"/>
</filter>
<filter id="filter1_i_4_34460" x="11" y="12.9995" width="24" height="25" filterUnits="userSpaceOnUse" color-interpolation-filters="sRGB">
<feFlood flood-opacity="0" result="BackgroundImageFix"/>
<feBlend mode="normal" in="SourceGraphic" in2="BackgroundImageFix" result="shape"/>
<feColorMatrix in="SourceAlpha" type="matrix" values="0 0 0 0 0 0 0 0 0 0 0 0 0 0 0 0 0 0 127 0" result="hardAlpha"/>
<feOffset dy="-1"/>
<feGaussianBlur stdDeviation="1"/>
<feComposite in2="hardAlpha" operator="arithmetic" k2="-1" k3="1"/>
<feColorMatrix type="matrix" values="0 0 0 0 0.992157 0 0 0 0 0.878431 0 0 0 0 0.278431 0 0 0 1 0"/>
<feBlend mode="normal" in2="shape" result="effect1_innerShadow_4_34460"/>
</filter>
<filter id="filter2_ii_4_34460" x="11" y="12.9995" width="24" height="26" filterUnits="userSpaceOnUse" color-interpolation-filters="sRGB">
<feFlood flood-opacity="0" result="BackgroundImageFix"/>
<feBlend mode="normal" in="SourceGraphic" in2="BackgroundImageFix" result="shape"/>
<feColorMatrix in="SourceAlpha" type="matrix" values="0 0 0 0 0 0 0 0 0 0 0 0 0 0 0 0 0 0 127 0" result="hardAlpha"/>
<feOffset dy="-1"/>
<feGaussianBlur stdDeviation="1.5"/>
<feComposite in2="hardAlpha" operator="arithmetic" k2="-1" k3="1"/>
<feColorMatrix type="matrix" values="0 0 0 0 0.992157 0 0 0 0 0.878431 0 0 0 0 0.278431 0 0 0 1 0"/>
<feBlend mode="normal" in2="shape" result="effect1_innerShadow_4_34460"/>
<feColorMatrix in="SourceAlpha" type="matrix" values="0 0 0 0 0 0 0 0 0 0 0 0 0 0 0 0 0 0 127 0" result="hardAlpha"/>
<feOffset dy="1"/>
<feGaussianBlur stdDeviation="0.5"/>
<feComposite in2="hardAlpha" operator="arithmetic" k2="-1" k3="1"/>
<feColorMatrix type="matrix" values="0 0 0 0 0.996078 0 0 0 0 0.941176 0 0 0 0 0.541176 0 0 0 1 0"/>
<feBlend mode="normal" in2="effect1_innerShadow_4_34460" result="effect2_innerShadow_4_34460"/>
</filter>
<filter id="filter3_f_4_34460" x="14" y="13.9995" width="18" height="14" filterUnits="userSpaceOnUse" color-interpolation-filters="sRGB">
<feFlood flood-opacity="0" result="BackgroundImageFix"/>
<feBlend mode="normal" in="SourceGraphic" in2="BackgroundImageFix" result="shape"/>
<feGaussianBlur stdDeviation="1" result="effect1_foregroundBlur_4_34460"/>
</filter>
<filter id="filter4_d_4_34460" x="9" y="15" width="54" height="38" filterUnits="userSpaceOnUse" color-interpolation-filters="sRGB">
<feFlood flood-opacity="0" result="BackgroundImageFix"/>
<feColorMatrix in="SourceAlpha" type="matrix" values="0 0 0 0 0 0 0 0 0 0 0 0 0 0 0 0 0 0 127 0" result="hardAlpha"/>
<feOffset dy="2"/>
<feGaussianBlur stdDeviation="2"/>
<feComposite in2="hardAlpha" operator="out"/>
<feColorMatrix type="matrix" values="0 0 0 0 0.278431 0 0 0 0 0.333333 0 0 0 0 0.411765 0 0 0 0.4 0"/>
<feBlend mode="normal" in2="BackgroundImageFix" result="effect1_dropShadow_4_34460"/>
<feBlend mode="normal" in="SourceGraphic" in2="effect1_dropShadow_4_34460" result="shape"/>
</filter>
<filter id="filter5_ii_4_34460" x="13" y="27" width="46" height="22" filterUnits="userSpaceOnUse" color-interpolation-filters="sRGB">
<feFlood flood-opacity="0" result="BackgroundImageFix"/>
<feBlend mode="normal" in="SourceGraphic" in2="BackgroundImageFix" result="shape"/>
<feColorMatrix in="SourceAlpha" type="matrix" values="0 0 0 0 0 0 0 0 0 0 0 0 0 0 0 0 0 0 127 0" result="hardAlpha"/>
<feOffset dy="2"/>
<feGaussianBlur stdDeviation="1"/>
<feComposite in2="hardAlpha" operator="arithmetic" k2="-1" k3="1"/>
<feColorMatrix type="matrix" values="0 0 0 0 0.796078 0 0 0 0 0.835294 0 0 0 0 0.882353 0 0 0 1 0"/>
<feBlend mode="normal" in2="shape" result="effect1_innerShadow_4_34460"/>
<feColorMatrix in="SourceAlpha" type="matrix" values="0 0 0 0 0 0 0 0 0 0 0 0 0 0 0 0 0 0 127 0" result="hardAlpha"/>
<feOffset dy="-2"/>
<feGaussianBlur stdDeviation="1"/>
<feComposite in2="hardAlpha" operator="arithmetic" k2="-1" k3="1"/>
<feColorMatrix type="matrix" values="0 0 0 0 0.796078 0 0 0 0 0.835294 0 0 0 0 0.882353 0 0 0 0.6 0"/>
<feBlend mode="normal" in2="effect1_innerShadow_4_34460" result="effect2_innerShadow_4_34460"/>
</filter>
<filter id="filter6_f_4_34460" x="13" y="33" width="14" height="14" filterUnits="userSpaceOnUse" color-interpolation-filters="sRGB">
<feFlood flood-opacity="0" result="BackgroundImageFix"/>
<feBlend mode="normal" in="SourceGraphic" in2="BackgroundImageFix" result="shape"/>
<feGaussianBlur stdDeviation="1" result="effect1_foregroundBlur_4_34460"/>
</filter>
<filter id="filter7_i_4_34460" x="19" y="25" width="16" height="18" filterUnits="userSpaceOnUse" color-interpolation-filters="sRGB">
<feFlood flood-opacity="0" result="BackgroundImageFix"/>
<feBlend mode="normal" in="SourceGraphic" in2="BackgroundImageFix" result="shape"/>
<feColorMatrix in="SourceAlpha" type="matrix" values="0 0 0 0 0 0 0 0 0 0 0 0 0 0 0 0 0 0 127 0" result="hardAlpha"/>
<feOffset dy="2"/>
<feGaussianBlur stdDeviation="1"/>
<feComposite in2="hardAlpha" operator="arithmetic" k2="-1" k3="1"/>
<feColorMatrix type="matrix" values="0 0 0 0 0.796078 0 0 0 0 0.835294 0 0 0 0 0.882353 0 0 0 1 0"/>
<feBlend mode="normal" in2="shape" result="effect1_innerShadow_4_34460"/>
</filter>
<filter id="filter8_f_4_34460" x="19" y="25" width="16" height="14" filterUnits="userSpaceOnUse" color-interpolation-filters="sRGB">
<feFlood flood-opacity="0" result="BackgroundImageFix"/>
<feBlend mode="normal" in="SourceGraphic" in2="BackgroundImageFix" result="shape"/>
<feGaussianBlur stdDeviation="1" result="effect1_foregroundBlur_4_34460"/>
</filter>
<filter id="filter9_f_4_34460" x="44" y="30" width="14" height="14" filterUnits="userSpaceOnUse" color-interpolation-filters="sRGB">
<feFlood flood-opacity="0" result="BackgroundImageFix"/>
<feBlend mode="normal" in="SourceGraphic" in2="BackgroundImageFix" result="shape"/>
<feGaussianBlur stdDeviation="1" result="effect1_foregroundBlur_4_34460"/>
</filter>
<filter id="filter10_i_4_34460" x="28" y="17" width="25" height="27" filterUnits="userSpaceOnUse" color-interpolation-filters="sRGB">
<feFlood flood-opacity="0" result="BackgroundImageFix"/>
<feBlend mode="normal" in="SourceGraphic" in2="BackgroundImageFix" result="shape"/>
<feColorMatrix in="SourceAlpha" type="matrix" values="0 0 0 0 0 0 0 0 0 0 0 0 0 0 0 0 0 0 127 0" result="hardAlpha"/>
<feOffset dy="2"/>
<feGaussianBlur stdDeviation="1"/>
<feComposite in2="hardAlpha" operator="arithmetic" k2="-1" k3="1"/>
<feColorMatrix type="matrix" values="0 0 0 0 0.796078 0 0 0 0 0.835294 0 0 0 0 0.882353 0 0 0 1 0"/>
<feBlend mode="normal" in2="shape" result="effect1_innerShadow_4_34460"/>
</filter>
<filter id="filter11_f_4_34460" x="31" y="17" width="18" height="14" filterUnits="userSpaceOnUse" color-interpolation-filters="sRGB">
<feFlood flood-opacity="0" result="BackgroundImageFix"/>
<feBlend mode="normal" in="SourceGraphic" in2="BackgroundImageFix" result="shape"/>
<feGaussianBlur stdDeviation="1" result="effect1_foregroundBlur_4_34460"/>
</filter>
<filter id="filter12_i_4_34460" x="27" y="31" width="18" height="15" filterUnits="userSpaceOnUse" color-interpolation-filters="sRGB">
<feFlood flood-opacity="0" result="BackgroundImageFix"/>
<feBlend mode="normal" in="SourceGraphic" in2="BackgroundImageFix" result="shape"/>
<feColorMatrix in="SourceAlpha" type="matrix" values="0 0 0 0 0 0 0 0 0 0 0 0 0 0 0 0 0 0 127 0" result="hardAlpha"/>
<feOffset dy="2"/>
<feGaussianBlur stdDeviation="1"/>
<feComposite in2="hardAlpha" operator="arithmetic" k2="-1" k3="1"/>
<feColorMatrix type="matrix" values="0 0 0 0 0.796078 0 0 0 0 0.835294 0 0 0 0 0.882353 0 0 0 0.6 0"/>
<feBlend mode="normal" in2="shape" result="effect1_innerShadow_4_34460"/>
</filter>
<filter id="filter13_f_4_34460" x="27" y="31" width="18" height="13" filterUnits="userSpaceOnUse" color-interpolation-filters="sRGB">
<feFlood flood-opacity="0" result="BackgroundImageFix"/>
<feBlend mode="normal" in="SourceGraphic" in2="BackgroundImageFix" result="shape"/>
<feGaussianBlur stdDeviation="1" result="effect1_foregroundBlur_4_34460"/>
</filter>
<filter id="filter14_f_4_34460" x="11" y="15.5" width="28.5" height="25.9851" filterUnits="userSpaceOnUse" color-interpolation-filters="sRGB">
<feFlood flood-opacity="0" result="BackgroundImageFix"/>
<feBlend mode="normal" in="SourceGraphic" in2="BackgroundImageFix" result="shape"/>
<feGaussianBlur stdDeviation="1" result="effect1_foregroundBlur_4_34460"/>
</filter>
<radialGradient id="paint0_radial_4_34460" cx="0" cy="0" r="1" gradientUnits="userSpaceOnUse" gradientTransform="translate(23 13.9995) rotate(90) scale(30 29.9999)">
<stop stop-color="#FACC15"/>
<stop offset="1" stop-color="#D97706"/>
</radialGradient>
<linearGradient id="paint1_linear_4_34460" x1="23" y1="13.9995" x2="23" y2="37.9995" gradientUnits="userSpaceOnUse">
<stop stop-color="#FEF08A"/>
<stop offset="1" stop-color="#F59E0B"/>
</linearGradient>
<linearGradient id="paint2_linear_4_34460" x1="23" y1="13.9995" x2="23" y2="37.9995" gradientUnits="userSpaceOnUse">
<stop stop-color="#FFF28F"/>
<stop offset="1" stop-color="#F79B00"/>
</linearGradient>
<linearGradient id="paint3_linear_4_34460" x1="23" y1="15.9995" x2="23" y2="25.9995" gradientUnits="userSpaceOnUse">
<stop stop-color="#FEF9C3"/>
<stop offset="1" stop-color="#FEF9C3" stop-opacity="0"/>
<stop offset="1" stop-color="#FEF9C3" stop-opacity="0.2"/>
</linearGradient>
<linearGradient id="paint4_linear_4_34460" x1="20" y1="35" x2="20" y2="45" gradientUnits="userSpaceOnUse">
<stop stop-color="white"/>
<stop offset="1" stop-color="#F3F3F3" stop-opacity="0.2"/>
</linearGradient>
<linearGradient id="paint5_linear_4_34460" x1="27" y1="27" x2="27" y2="37" gradientUnits="userSpaceOnUse">
<stop stop-color="white"/>
<stop offset="1" stop-color="#F3F3F3" stop-opacity="0.2"/>
</linearGradient>
<linearGradient id="paint6_linear_4_34460" x1="51" y1="32" x2="51" y2="42" gradientUnits="userSpaceOnUse">
<stop stop-color="white"/>
<stop offset="1" stop-color="#F3F3F3" stop-opacity="0.2"/>
</linearGradient>
<linearGradient id="paint7_linear_4_34460" x1="40" y1="19" x2="40" y2="29" gradientUnits="userSpaceOnUse">
<stop stop-color="white"/>
<stop offset="1" stop-color="#F3F3F3" stop-opacity="0.2"/>
</linearGradient>
<linearGradient id="paint8_linear_4_34460" x1="36" y1="31" x2="36" y2="44" gradientUnits="userSpaceOnUse">
<stop stop-color="#F1F5F9"/>
<stop offset="0.650321" stop-color="#F1F5F9" stop-opacity="0"/>
</linearGradient>
<linearGradient id="paint9_linear_4_34460" x1="36" y1="33" x2="36" y2="42" gradientUnits="userSpaceOnUse">
<stop stop-color="white"/>
<stop offset="1" stop-color="#F3F3F3" stop-opacity="0.2"/>
</linearGradient>
<clipPath id="clip0_4_34460">
<rect width="64" height="64" fill="white"/>
</clipPath>
</defs>
</svg>
