<svg width="69" height="66" viewBox="0 0 69 66" fill="none" xmlns="http://www.w3.org/2000/svg">
<g filter="url(#filter0_d_4_34471)">
<path d="M34.526 11.2202C34.2598 11.117 33.9685 11.2751 33.8487 11.5341C33.2911 12.7398 31.9746 13.4688 30.6048 13.2273C29.235 12.9857 28.2473 11.8504 28.1357 10.5268C28.1117 10.2424 27.892 9.99418 27.6067 10.0001C27.3208 10.006 27.1138 10.2638 27.1023 10.5495C27.0484 11.8767 26.1112 13.0539 24.7533 13.355C23.3958 13.6559 22.0493 12.9856 21.4393 11.8062C21.3081 11.5524 21.0103 11.4069 20.7488 11.5223C20.4877 11.6375 20.3947 11.9545 20.493 12.2224C20.9505 13.4689 20.535 14.9146 19.396 15.7121C18.257 16.5097 16.7564 16.4056 15.7416 15.5494C15.5235 15.3654 15.1937 15.3443 14.9962 15.5503C14.7984 15.7565 14.8332 16.0861 15.0268 16.2963C15.9264 17.2728 16.0957 18.7674 15.3487 19.94C14.6013 21.1131 13.1745 21.5912 11.909 21.1878C11.6366 21.101 11.3236 21.2073 11.2202 21.4739C11.1171 21.74 11.2751 22.0313 11.5342 22.1511C12.7398 22.7087 13.4689 24.0252 13.2273 25.395C12.9858 26.7647 11.8505 27.7524 10.527 27.8641C10.2425 27.8881 9.99417 28.1079 10.0001 28.3934C10.006 28.6793 10.264 28.8864 10.5497 28.898C11.8768 28.9519 13.0539 29.8891 13.3549 31.247C13.6559 32.6044 12.9856 33.9509 11.8063 34.5609C11.5524 34.6922 11.407 34.99 11.5224 35.2514C11.6375 35.5125 11.9546 35.6055 12.2225 35.5072C13.469 35.0497 14.9147 35.4652 15.7122 36.6042C16.5097 37.7432 16.4057 39.2438 15.5495 40.2586C15.3655 40.4767 15.3444 40.8065 15.5504 41.004C15.7566 41.2018 16.0862 41.167 16.2964 40.9734C17.2729 40.0738 18.7675 39.9044 19.9402 40.6515C21.1132 41.3988 21.5913 42.8256 21.188 44.0911C21.1012 44.3635 21.2075 44.6766 21.4741 44.7799C21.7402 44.8831 22.0315 44.725 22.1513 44.466C22.7089 43.2603 24.0254 42.5313 25.3952 42.7728C26.765 43.0144 27.7527 44.1497 27.8643 45.4733C27.8883 45.7577 28.108 46.0059 28.3933 46C28.6792 45.994 28.8862 45.7362 28.8978 45.4506C28.9516 44.1234 29.8888 42.9462 31.2467 42.6451C32.6042 42.3442 33.9507 43.0145 34.5606 44.1938C34.6919 44.4477 34.9898 44.5931 35.2513 44.4778C35.5124 44.3626 35.6054 44.0454 35.5071 43.7775C35.0496 42.531 35.465 41.0853 36.604 40.2878C37.7431 39.4902 39.2437 39.5943 40.2585 40.4505C40.4766 40.6346 40.8064 40.6556 41.004 40.4496C41.2018 40.2434 41.167 39.9137 40.9734 39.7035C40.0737 38.727 39.9044 37.2324 40.6515 36.0597C41.3988 34.8867 42.8256 34.4086 44.0911 34.8119C44.3635 34.8987 44.6766 34.7924 44.7799 34.5258C44.8831 34.2597 44.725 33.9683 44.4659 33.8485C43.2603 33.2909 42.5313 31.9745 42.7728 30.6046C43.0144 29.2348 44.1498 28.247 45.4734 28.1355C45.7577 28.1116 46.0058 27.8919 45.9999 27.6067C45.994 27.3209 45.7363 27.114 45.4507 27.1025C44.1235 27.0487 42.9461 26.1115 42.645 24.7535C42.3441 23.396 43.0144 22.0495 44.1938 21.4395C44.4477 21.3082 44.5931 21.0104 44.4777 20.7489C44.3626 20.4878 44.0454 20.3948 43.7775 20.4931C42.531 20.9506 41.0853 20.5351 40.2878 19.3961C39.4902 18.2571 39.5943 16.7565 40.4505 15.7416C40.6346 15.5235 40.6557 15.1937 40.4497 14.9961C40.2434 14.7983 39.9138 14.8331 39.7036 15.0268C38.727 15.9263 37.2325 16.0957 36.0598 15.3486C34.8868 14.6013 34.4087 13.1745 34.812 11.909C34.8989 11.6366 34.7925 11.3235 34.526 11.2202Z" fill="url(#paint0_radial_4_34471)"/>
</g>
<g filter="url(#filter1_i_4_34471)">
<circle cx="28" cy="27.9995" r="12" fill="url(#paint1_linear_4_34471)"/>
</g>
<g filter="url(#filter2_ii_4_34471)">
<circle cx="28" cy="27.9995" r="12" fill="url(#paint2_linear_4_34471)"/>
</g>
<g filter="url(#filter3_f_4_34471)">
<ellipse cx="28" cy="22.9995" rx="7" ry="5" fill="url(#paint3_linear_4_34471)" style="mix-blend-mode:soft-light"/>
</g>
<g filter="url(#filter4_f_4_34471)">
<path d="M26.0645 53.7391C25.1355 49.913 22.9677 48.3188 22 48H58C56.4516 49.7536 54.5161 52.2087 54.5161 53.7391C54.5161 55.2696 54.9032 57.8841 55.6774 59H24.9032C25.6774 58.8406 26.9935 57.5652 26.0645 53.7391Z" fill="url(#paint4_linear_4_34471)"/>
</g>
<g filter="url(#filter5_d_4_34471)">
<path fill-rule="evenodd" clip-rule="evenodd" d="M58 31.5121C58 31.5081 58 31.504 58 31.5C58 24.5964 52.4036 19 45.5 19C40.1094 19 35.5158 22.4122 33.7613 27.1945C33.1946 27.0672 32.6051 27 32 27C27.5817 27 24 30.5817 24 35C24 35.0236 24.0001 35.0473 24.0003 35.0708C20.6079 35.5559 18 38.4734 18 42C18 45.866 21.134 49 25 49H55C59.9706 49 64 44.9706 64 40C64 36.0813 61.4956 32.7476 58 31.5121Z" fill="#64748B"/>
</g>
<g filter="url(#filter6_ii_4_34471)">
<path fill-rule="evenodd" clip-rule="evenodd" d="M64 40C64 44.9706 59.9706 49 55 49H25C21.134 49 18 45.866 18 42C18 38.134 21.134 35 25 35C27.7924 35 30.2029 36.6351 31.3264 39H46.0549C46.5524 34.5 50.3674 31 55 31C59.9706 31 64 35.0294 64 40Z" fill="#F1F5F9"/>
</g>
<g filter="url(#filter7_f_4_34471)">
<circle cx="25" cy="42" r="5" fill="url(#paint5_linear_4_34471)" style="mix-blend-mode:soft-light"/>
</g>
<g filter="url(#filter8_i_4_34471)">
<circle cx="32" cy="35" r="8" fill="#F1F5F9"/>
</g>
<g filter="url(#filter9_f_4_34471)">
<ellipse cx="32" cy="34" rx="6" ry="5" fill="url(#paint6_linear_4_34471)" style="mix-blend-mode:soft-light"/>
</g>
<g filter="url(#filter10_f_4_34471)">
<circle cx="56" cy="39" r="5" fill="url(#paint7_linear_4_34471)" style="mix-blend-mode:soft-light"/>
</g>
<g filter="url(#filter11_i_4_34471)">
<circle cx="45.5" cy="31.5" r="12.5" fill="#F1F5F9"/>
</g>
<g filter="url(#filter12_f_4_34471)">
<ellipse cx="45" cy="26" rx="7" ry="5" fill="url(#paint8_linear_4_34471)" style="mix-blend-mode:soft-light"/>
</g>
<g filter="url(#filter13_i_4_34471)">
<ellipse cx="41" cy="39.5" rx="9" ry="6.5" fill="url(#paint9_linear_4_34471)"/>
</g>
<g filter="url(#filter14_f_4_34471)">
<ellipse cx="41" cy="39.5" rx="7" ry="4.5" fill="url(#paint10_linear_4_34471)" style="mix-blend-mode:soft-light"/>
</g>
<path fill-rule="evenodd" clip-rule="evenodd" d="M58 31.5121C58 31.5081 58 31.504 58 31.5C58 24.5964 52.4036 19 45.5 19C40.1094 19 35.5158 22.4122 33.7613 27.1945C33.1946 27.0672 32.6051 27 32 27C27.5817 27 24 30.5817 24 35C24 35.0236 24.0001 35.0473 24.0003 35.0708C20.6079 35.5559 18 38.4734 18 42C18 45.866 21.134 49 25 49H55C59.9706 49 64 44.9706 64 40C64 36.0813 61.4956 32.7476 58 31.5121Z" fill="#93C5FD" style="mix-blend-mode:color"/>
<path fill-rule="evenodd" clip-rule="evenodd" d="M58 31.5121C58 31.5081 58 31.504 58 31.5C58 24.5964 52.4036 19 45.5 19C40.1094 19 35.5158 22.4122 33.7613 27.1945C33.1946 27.0672 32.6051 27 32 27C27.5817 27 24 30.5817 24 35C24 35.0236 24.0001 35.0473 24.0003 35.0708C20.6079 35.5559 18 38.4734 18 42C18 45.866 21.134 49 25 49H55C59.9706 49 64 44.9706 64 40C64 36.0813 61.4956 32.7476 58 31.5121Z" fill="#93C5FD" fill-opacity="0.2" style="mix-blend-mode:multiply"/>
<g filter="url(#filter15_ii_4_34471)">
<path d="M33.7588 58.9402L37.3735 53.0253C37.4913 52.8325 37.7884 52.9524 37.7393 53.1729L36.2356 59.9398C36.0979 60.5593 35.5485 61 34.914 61C33.8567 61 33.2075 59.8423 33.7588 58.9402Z" fill="#3B82F6"/>
</g>
<path d="M35.8204 60.0909C35.6045 60.5993 35.0174 60.8363 34.5091 60.6204C34.0007 60.4044 33.7637 59.8173 33.9796 59.309C34.1956 58.8007 36.4917 54.2841 37 54.5C37.5083 54.716 36.0364 59.5826 35.8204 60.0909Z" fill="url(#paint11_radial_4_34471)"/>
<g filter="url(#filter16_ii_4_34471)">
<path d="M40.7588 58.9402L44.3735 53.0253C44.4913 52.8325 44.7884 52.9524 44.7393 53.1729L43.2356 59.9398C43.0979 60.5593 42.5485 61 41.914 61C40.8567 61 40.2075 59.8423 40.7588 58.9402Z" fill="#3B82F6"/>
</g>
<path d="M42.8204 60.0909C42.6045 60.5993 42.0174 60.8363 41.5091 60.6204C41.0007 60.4044 40.7637 59.8173 40.9796 59.309C41.1956 58.8007 43.4917 54.2841 44 54.5C44.5083 54.716 43.0364 59.5826 42.8204 60.0909Z" fill="url(#paint12_radial_4_34471)"/>
<g style="mix-blend-mode:color" filter="url(#filter17_f_4_34471)">
<path fill-rule="evenodd" clip-rule="evenodd" d="M42.5 19.5C41.1326 19.8419 37.9038 22.3554 37 23.4851C35.8579 24.9128 34.945 27.0956 34.5 28.8755C32.6166 28.3374 30.2456 28.5966 28.3017 29.9851C26.3578 31.3736 25.1614 33.6148 25.5 35.9851C23.8441 36.3163 22.3075 36.4391 21 37.4851C19.1525 38.9631 18 40.5875 18 41.4851C18 40.3864 18.5316 37.8337 20.6662 36.1119C21.6868 35.1023 22.625 34.8531 24 34.4851C23.961 33.0122 24.8387 29.8921 27.5 27.9851C29.1146 26.7 31.5256 26.5932 33.5 26.9851C33.8255 26.0662 34.748 24.3747 36.1096 22.6727C37.6049 20.8036 40.2081 20.073 42.5 19.5Z" fill="#FFCC00"/>
</g>
<defs>
<filter id="filter0_d_4_34471" x="0" y="0" width="56" height="56.0001" filterUnits="userSpaceOnUse" color-interpolation-filters="sRGB">
<feFlood flood-opacity="0" result="BackgroundImageFix"/>
<feColorMatrix in="SourceAlpha" type="matrix" values="0 0 0 0 0 0 0 0 0 0 0 0 0 0 0 0 0 0 127 0" result="hardAlpha"/>
<feOffset/>
<feGaussianBlur stdDeviation="5"/>
<feComposite in2="hardAlpha" operator="out"/>
<feColorMatrix type="matrix" values="0 0 0 0 0.980392 0 0 0 0 0.8 0 0 0 0 0.0823529 0 0 0 0.7 0"/>
<feBlend mode="normal" in2="BackgroundImageFix" result="effect1_dropShadow_4_34471"/>
<feBlend mode="normal" in="SourceGraphic" in2="effect1_dropShadow_4_34471" result="shape"/>
</filter>
<filter id="filter1_i_4_34471" x="16" y="14.9995" width="24" height="25" filterUnits="userSpaceOnUse" color-interpolation-filters="sRGB">
<feFlood flood-opacity="0" result="BackgroundImageFix"/>
<feBlend mode="normal" in="SourceGraphic" in2="BackgroundImageFix" result="shape"/>
<feColorMatrix in="SourceAlpha" type="matrix" values="0 0 0 0 0 0 0 0 0 0 0 0 0 0 0 0 0 0 127 0" result="hardAlpha"/>
<feOffset dy="-1"/>
<feGaussianBlur stdDeviation="1"/>
<feComposite in2="hardAlpha" operator="arithmetic" k2="-1" k3="1"/>
<feColorMatrix type="matrix" values="0 0 0 0 0.992157 0 0 0 0 0.878431 0 0 0 0 0.278431 0 0 0 1 0"/>
<feBlend mode="normal" in2="shape" result="effect1_innerShadow_4_34471"/>
</filter>
<filter id="filter2_ii_4_34471" x="16" y="14.9995" width="24" height="26" filterUnits="userSpaceOnUse" color-interpolation-filters="sRGB">
<feFlood flood-opacity="0" result="BackgroundImageFix"/>
<feBlend mode="normal" in="SourceGraphic" in2="BackgroundImageFix" result="shape"/>
<feColorMatrix in="SourceAlpha" type="matrix" values="0 0 0 0 0 0 0 0 0 0 0 0 0 0 0 0 0 0 127 0" result="hardAlpha"/>
<feOffset dy="-1"/>
<feGaussianBlur stdDeviation="1.5"/>
<feComposite in2="hardAlpha" operator="arithmetic" k2="-1" k3="1"/>
<feColorMatrix type="matrix" values="0 0 0 0 0.992157 0 0 0 0 0.878431 0 0 0 0 0.278431 0 0 0 1 0"/>
<feBlend mode="normal" in2="shape" result="effect1_innerShadow_4_34471"/>
<feColorMatrix in="SourceAlpha" type="matrix" values="0 0 0 0 0 0 0 0 0 0 0 0 0 0 0 0 0 0 127 0" result="hardAlpha"/>
<feOffset dy="1"/>
<feGaussianBlur stdDeviation="0.5"/>
<feComposite in2="hardAlpha" operator="arithmetic" k2="-1" k3="1"/>
<feColorMatrix type="matrix" values="0 0 0 0 0.996078 0 0 0 0 0.941176 0 0 0 0 0.541176 0 0 0 1 0"/>
<feBlend mode="normal" in2="effect1_innerShadow_4_34471" result="effect2_innerShadow_4_34471"/>
</filter>
<filter id="filter3_f_4_34471" x="19" y="15.9995" width="18" height="14" filterUnits="userSpaceOnUse" color-interpolation-filters="sRGB">
<feFlood flood-opacity="0" result="BackgroundImageFix"/>
<feBlend mode="normal" in="SourceGraphic" in2="BackgroundImageFix" result="shape"/>
<feGaussianBlur stdDeviation="1" result="effect1_foregroundBlur_4_34471"/>
</filter>
<filter id="filter4_f_4_34471" x="20" y="46" width="40" height="15" filterUnits="userSpaceOnUse" color-interpolation-filters="sRGB">
<feFlood flood-opacity="0" result="BackgroundImageFix"/>
<feBlend mode="normal" in="SourceGraphic" in2="BackgroundImageFix" result="shape"/>
<feGaussianBlur stdDeviation="1" result="effect1_foregroundBlur_4_34471"/>
</filter>
<filter id="filter5_d_4_34471" x="14" y="17" width="54" height="38" filterUnits="userSpaceOnUse" color-interpolation-filters="sRGB">
<feFlood flood-opacity="0" result="BackgroundImageFix"/>
<feColorMatrix in="SourceAlpha" type="matrix" values="0 0 0 0 0 0 0 0 0 0 0 0 0 0 0 0 0 0 127 0" result="hardAlpha"/>
<feOffset dy="2"/>
<feGaussianBlur stdDeviation="2"/>
<feComposite in2="hardAlpha" operator="out"/>
<feColorMatrix type="matrix" values="0 0 0 0 0.278431 0 0 0 0 0.333333 0 0 0 0 0.411765 0 0 0 0.4 0"/>
<feBlend mode="normal" in2="BackgroundImageFix" result="effect1_dropShadow_4_34471"/>
<feBlend mode="normal" in="SourceGraphic" in2="effect1_dropShadow_4_34471" result="shape"/>
</filter>
<filter id="filter6_ii_4_34471" x="18" y="29" width="46" height="22" filterUnits="userSpaceOnUse" color-interpolation-filters="sRGB">
<feFlood flood-opacity="0" result="BackgroundImageFix"/>
<feBlend mode="normal" in="SourceGraphic" in2="BackgroundImageFix" result="shape"/>
<feColorMatrix in="SourceAlpha" type="matrix" values="0 0 0 0 0 0 0 0 0 0 0 0 0 0 0 0 0 0 127 0" result="hardAlpha"/>
<feOffset dy="2"/>
<feGaussianBlur stdDeviation="1"/>
<feComposite in2="hardAlpha" operator="arithmetic" k2="-1" k3="1"/>
<feColorMatrix type="matrix" values="0 0 0 0 0.796078 0 0 0 0 0.835294 0 0 0 0 0.882353 0 0 0 1 0"/>
<feBlend mode="normal" in2="shape" result="effect1_innerShadow_4_34471"/>
<feColorMatrix in="SourceAlpha" type="matrix" values="0 0 0 0 0 0 0 0 0 0 0 0 0 0 0 0 0 0 127 0" result="hardAlpha"/>
<feOffset dy="-2"/>
<feGaussianBlur stdDeviation="1"/>
<feComposite in2="hardAlpha" operator="arithmetic" k2="-1" k3="1"/>
<feColorMatrix type="matrix" values="0 0 0 0 0.796078 0 0 0 0 0.835294 0 0 0 0 0.882353 0 0 0 0.6 0"/>
<feBlend mode="normal" in2="effect1_innerShadow_4_34471" result="effect2_innerShadow_4_34471"/>
</filter>
<filter id="filter7_f_4_34471" x="18" y="35" width="14" height="14" filterUnits="userSpaceOnUse" color-interpolation-filters="sRGB">
<feFlood flood-opacity="0" result="BackgroundImageFix"/>
<feBlend mode="normal" in="SourceGraphic" in2="BackgroundImageFix" result="shape"/>
<feGaussianBlur stdDeviation="1" result="effect1_foregroundBlur_4_34471"/>
</filter>
<filter id="filter8_i_4_34471" x="24" y="27" width="16" height="18" filterUnits="userSpaceOnUse" color-interpolation-filters="sRGB">
<feFlood flood-opacity="0" result="BackgroundImageFix"/>
<feBlend mode="normal" in="SourceGraphic" in2="BackgroundImageFix" result="shape"/>
<feColorMatrix in="SourceAlpha" type="matrix" values="0 0 0 0 0 0 0 0 0 0 0 0 0 0 0 0 0 0 127 0" result="hardAlpha"/>
<feOffset dy="2"/>
<feGaussianBlur stdDeviation="1"/>
<feComposite in2="hardAlpha" operator="arithmetic" k2="-1" k3="1"/>
<feColorMatrix type="matrix" values="0 0 0 0 0.796078 0 0 0 0 0.835294 0 0 0 0 0.882353 0 0 0 1 0"/>
<feBlend mode="normal" in2="shape" result="effect1_innerShadow_4_34471"/>
</filter>
<filter id="filter9_f_4_34471" x="24" y="27" width="16" height="14" filterUnits="userSpaceOnUse" color-interpolation-filters="sRGB">
<feFlood flood-opacity="0" result="BackgroundImageFix"/>
<feBlend mode="normal" in="SourceGraphic" in2="BackgroundImageFix" result="shape"/>
<feGaussianBlur stdDeviation="1" result="effect1_foregroundBlur_4_34471"/>
</filter>
<filter id="filter10_f_4_34471" x="49" y="32" width="14" height="14" filterUnits="userSpaceOnUse" color-interpolation-filters="sRGB">
<feFlood flood-opacity="0" result="BackgroundImageFix"/>
<feBlend mode="normal" in="SourceGraphic" in2="BackgroundImageFix" result="shape"/>
<feGaussianBlur stdDeviation="1" result="effect1_foregroundBlur_4_34471"/>
</filter>
<filter id="filter11_i_4_34471" x="33" y="19" width="25" height="27" filterUnits="userSpaceOnUse" color-interpolation-filters="sRGB">
<feFlood flood-opacity="0" result="BackgroundImageFix"/>
<feBlend mode="normal" in="SourceGraphic" in2="BackgroundImageFix" result="shape"/>
<feColorMatrix in="SourceAlpha" type="matrix" values="0 0 0 0 0 0 0 0 0 0 0 0 0 0 0 0 0 0 127 0" result="hardAlpha"/>
<feOffset dy="2"/>
<feGaussianBlur stdDeviation="1"/>
<feComposite in2="hardAlpha" operator="arithmetic" k2="-1" k3="1"/>
<feColorMatrix type="matrix" values="0 0 0 0 0.796078 0 0 0 0 0.835294 0 0 0 0 0.882353 0 0 0 1 0"/>
<feBlend mode="normal" in2="shape" result="effect1_innerShadow_4_34471"/>
</filter>
<filter id="filter12_f_4_34471" x="36" y="19" width="18" height="14" filterUnits="userSpaceOnUse" color-interpolation-filters="sRGB">
<feFlood flood-opacity="0" result="BackgroundImageFix"/>
<feBlend mode="normal" in="SourceGraphic" in2="BackgroundImageFix" result="shape"/>
<feGaussianBlur stdDeviation="1" result="effect1_foregroundBlur_4_34471"/>
</filter>
<filter id="filter13_i_4_34471" x="32" y="33" width="18" height="15" filterUnits="userSpaceOnUse" color-interpolation-filters="sRGB">
<feFlood flood-opacity="0" result="BackgroundImageFix"/>
<feBlend mode="normal" in="SourceGraphic" in2="BackgroundImageFix" result="shape"/>
<feColorMatrix in="SourceAlpha" type="matrix" values="0 0 0 0 0 0 0 0 0 0 0 0 0 0 0 0 0 0 127 0" result="hardAlpha"/>
<feOffset dy="2"/>
<feGaussianBlur stdDeviation="1"/>
<feComposite in2="hardAlpha" operator="arithmetic" k2="-1" k3="1"/>
<feColorMatrix type="matrix" values="0 0 0 0 0.796078 0 0 0 0 0.835294 0 0 0 0 0.882353 0 0 0 0.6 0"/>
<feBlend mode="normal" in2="shape" result="effect1_innerShadow_4_34471"/>
</filter>
<filter id="filter14_f_4_34471" x="32" y="33" width="18" height="13" filterUnits="userSpaceOnUse" color-interpolation-filters="sRGB">
<feFlood flood-opacity="0" result="BackgroundImageFix"/>
<feBlend mode="normal" in="SourceGraphic" in2="BackgroundImageFix" result="shape"/>
<feGaussianBlur stdDeviation="1" result="effect1_foregroundBlur_4_34471"/>
</filter>
<filter id="filter15_ii_4_34471" x="33.558" y="52.4286" width="4.18677" height="8.57136" filterUnits="userSpaceOnUse" color-interpolation-filters="sRGB">
<feFlood flood-opacity="0" result="BackgroundImageFix"/>
<feBlend mode="normal" in="SourceGraphic" in2="BackgroundImageFix" result="shape"/>
<feColorMatrix in="SourceAlpha" type="matrix" values="0 0 0 0 0 0 0 0 0 0 0 0 0 0 0 0 0 0 127 0" result="hardAlpha"/>
<feOffset dy="-1"/>
<feComposite in2="hardAlpha" operator="arithmetic" k2="-1" k3="1"/>
<feColorMatrix type="matrix" values="0 0 0 0 0.231373 0 0 0 0 0.509804 0 0 0 0 0.964706 0 0 0 1 0"/>
<feBlend mode="normal" in2="shape" result="effect1_innerShadow_4_34471"/>
<feColorMatrix in="SourceAlpha" type="matrix" values="0 0 0 0 0 0 0 0 0 0 0 0 0 0 0 0 0 0 127 0" result="hardAlpha"/>
<feOffset dy="-0.5"/>
<feGaussianBlur stdDeviation="0.25"/>
<feComposite in2="hardAlpha" operator="arithmetic" k2="-1" k3="1"/>
<feColorMatrix type="matrix" values="0 0 0 0 0.113438 0 0 0 0 0.33625 0 0 0 0 0.825 0 0 0 1 0"/>
<feBlend mode="normal" in2="effect1_innerShadow_4_34471" result="effect2_innerShadow_4_34471"/>
</filter>
<filter id="filter16_ii_4_34471" x="40.558" y="52.4286" width="4.18677" height="8.57136" filterUnits="userSpaceOnUse" color-interpolation-filters="sRGB">
<feFlood flood-opacity="0" result="BackgroundImageFix"/>
<feBlend mode="normal" in="SourceGraphic" in2="BackgroundImageFix" result="shape"/>
<feColorMatrix in="SourceAlpha" type="matrix" values="0 0 0 0 0 0 0 0 0 0 0 0 0 0 0 0 0 0 127 0" result="hardAlpha"/>
<feOffset dy="-1"/>
<feComposite in2="hardAlpha" operator="arithmetic" k2="-1" k3="1"/>
<feColorMatrix type="matrix" values="0 0 0 0 0.231373 0 0 0 0 0.509804 0 0 0 0 0.964706 0 0 0 1 0"/>
<feBlend mode="normal" in2="shape" result="effect1_innerShadow_4_34471"/>
<feColorMatrix in="SourceAlpha" type="matrix" values="0 0 0 0 0 0 0 0 0 0 0 0 0 0 0 0 0 0 127 0" result="hardAlpha"/>
<feOffset dy="-0.5"/>
<feGaussianBlur stdDeviation="0.25"/>
<feComposite in2="hardAlpha" operator="arithmetic" k2="-1" k3="1"/>
<feColorMatrix type="matrix" values="0 0 0 0 0.113438 0 0 0 0 0.33625 0 0 0 0 0.825 0 0 0 1 0"/>
<feBlend mode="normal" in2="effect1_innerShadow_4_34471" result="effect2_innerShadow_4_34471"/>
</filter>
<filter id="filter17_f_4_34471" x="16" y="17.5" width="28.5" height="25.9851" filterUnits="userSpaceOnUse" color-interpolation-filters="sRGB">
<feFlood flood-opacity="0" result="BackgroundImageFix"/>
<feBlend mode="normal" in="SourceGraphic" in2="BackgroundImageFix" result="shape"/>
<feGaussianBlur stdDeviation="1" result="effect1_foregroundBlur_4_34471"/>
</filter>
<radialGradient id="paint0_radial_4_34471" cx="0" cy="0" r="1" gradientUnits="userSpaceOnUse" gradientTransform="translate(28 15.9995) rotate(90) scale(30 29.9999)">
<stop stop-color="#FACC15"/>
<stop offset="1" stop-color="#D97706"/>
</radialGradient>
<linearGradient id="paint1_linear_4_34471" x1="28" y1="15.9995" x2="28" y2="39.9995" gradientUnits="userSpaceOnUse">
<stop stop-color="#FEF08A"/>
<stop offset="1" stop-color="#F59E0B"/>
</linearGradient>
<linearGradient id="paint2_linear_4_34471" x1="28" y1="15.9995" x2="28" y2="39.9995" gradientUnits="userSpaceOnUse">
<stop stop-color="#FFF28F"/>
<stop offset="1" stop-color="#F79B00"/>
</linearGradient>
<linearGradient id="paint3_linear_4_34471" x1="28" y1="17.9995" x2="28" y2="27.9995" gradientUnits="userSpaceOnUse">
<stop stop-color="#FEF9C3"/>
<stop offset="1" stop-color="#FEF9C3" stop-opacity="0"/>
<stop offset="1" stop-color="#FEF9C3" stop-opacity="0.2"/>
</linearGradient>
<linearGradient id="paint4_linear_4_34471" x1="40" y1="48" x2="40" y2="59" gradientUnits="userSpaceOnUse">
<stop stop-color="#BAE6FD"/>
<stop offset="1" stop-color="#BAE6FD" stop-opacity="0"/>
</linearGradient>
<linearGradient id="paint5_linear_4_34471" x1="25" y1="37" x2="25" y2="47" gradientUnits="userSpaceOnUse">
<stop stop-color="white"/>
<stop offset="1" stop-color="#F3F3F3" stop-opacity="0.2"/>
</linearGradient>
<linearGradient id="paint6_linear_4_34471" x1="32" y1="29" x2="32" y2="39" gradientUnits="userSpaceOnUse">
<stop stop-color="white"/>
<stop offset="1" stop-color="#F3F3F3" stop-opacity="0.2"/>
</linearGradient>
<linearGradient id="paint7_linear_4_34471" x1="56" y1="34" x2="56" y2="44" gradientUnits="userSpaceOnUse">
<stop stop-color="white"/>
<stop offset="1" stop-color="#F3F3F3" stop-opacity="0.2"/>
</linearGradient>
<linearGradient id="paint8_linear_4_34471" x1="45" y1="21" x2="45" y2="31" gradientUnits="userSpaceOnUse">
<stop stop-color="white"/>
<stop offset="1" stop-color="#F3F3F3" stop-opacity="0.2"/>
</linearGradient>
<linearGradient id="paint9_linear_4_34471" x1="41" y1="33" x2="41" y2="46" gradientUnits="userSpaceOnUse">
<stop stop-color="#F1F5F9"/>
<stop offset="0.650321" stop-color="#F1F5F9" stop-opacity="0"/>
</linearGradient>
<linearGradient id="paint10_linear_4_34471" x1="41" y1="35" x2="41" y2="44" gradientUnits="userSpaceOnUse">
<stop stop-color="white"/>
<stop offset="1" stop-color="#F3F3F3" stop-opacity="0.2"/>
</linearGradient>
<radialGradient id="paint11_radial_4_34471" cx="0" cy="0" r="1" gradientUnits="userSpaceOnUse" gradientTransform="translate(34.5 60.5) rotate(-68.1986) scale(5.38516)">
<stop stop-color="#74D5FF"/>
<stop offset="0.37551" stop-color="#74D5FF" stop-opacity="0"/>
</radialGradient>
<radialGradient id="paint12_radial_4_34471" cx="0" cy="0" r="1" gradientUnits="userSpaceOnUse" gradientTransform="translate(41.5 60.5) rotate(-68.1986) scale(5.38516)">
<stop stop-color="#74D5FF"/>
<stop offset="0.37551" stop-color="#74D5FF" stop-opacity="0"/>
</radialGradient>
</defs>
</svg>
