<svg width="64" height="64" viewBox="0 0 64 64" fill="none" xmlns="http://www.w3.org/2000/svg">
<g filter="url(#filter0_d_4_34546)">
<path fill-rule="evenodd" clip-rule="evenodd" d="M49 25.5121C49 25.5081 49 25.504 49 25.5C49 18.5964 43.4036 13 36.5 13C31.1094 13 26.5158 16.4122 24.7613 21.1945C24.1946 21.0672 23.6051 21 23 21C18.5817 21 15 24.5817 15 29C15 29.0236 15.0001 29.0473 15.0003 29.0708C11.6079 29.5559 9 32.4734 9 36C9 39.866 12.134 43 16 43H46C50.9706 43 55 38.9706 55 34C55 30.0813 52.4956 26.7476 49 25.5121Z" fill="#64748B"/>
</g>
<g filter="url(#filter1_ii_4_34546)">
<path fill-rule="evenodd" clip-rule="evenodd" d="M55 34C55 38.9706 50.9706 43 46 43H16C12.134 43 9 39.866 9 36C9 32.134 12.134 29 16 29C18.7924 29 21.2029 30.6351 22.3264 33H37.0549C37.5524 28.5 41.3674 25 46 25C50.9706 25 55 29.0294 55 34Z" fill="#F1F5F9"/>
</g>
<g filter="url(#filter2_f_4_34546)">
<circle cx="16" cy="36" r="5" fill="url(#paint0_linear_4_34546)" style="mix-blend-mode:soft-light"/>
</g>
<g filter="url(#filter3_i_4_34546)">
<circle cx="23" cy="29" r="8" fill="#F1F5F9"/>
</g>
<g filter="url(#filter4_f_4_34546)">
<ellipse cx="23" cy="28" rx="6" ry="5" fill="url(#paint1_linear_4_34546)" style="mix-blend-mode:soft-light"/>
</g>
<g filter="url(#filter5_f_4_34546)">
<circle cx="47" cy="33" r="5" fill="url(#paint2_linear_4_34546)" style="mix-blend-mode:soft-light"/>
</g>
<g filter="url(#filter6_i_4_34546)">
<circle cx="36.5" cy="25.5" r="12.5" fill="#F1F5F9"/>
</g>
<g filter="url(#filter7_f_4_34546)">
<ellipse cx="36" cy="20" rx="7" ry="5" fill="url(#paint3_linear_4_34546)" style="mix-blend-mode:soft-light"/>
</g>
<g filter="url(#filter8_i_4_34546)">
<ellipse cx="32" cy="33.5" rx="9" ry="6.5" fill="url(#paint4_linear_4_34546)"/>
</g>
<g filter="url(#filter9_f_4_34546)">
<ellipse cx="32" cy="33.5" rx="7" ry="4.5" fill="url(#paint5_linear_4_34546)" style="mix-blend-mode:soft-light"/>
</g>
<g clip-path="url(#clip0_4_34546)">
<g filter="url(#filter10_df_4_34546)">
<path d="M18 53L23.4028 51.0931C25.3873 50.3927 27.5677 50.5024 29.4718 51.3985L31.5936 52.397C33.7511 53.4123 36.2489 53.4123 38.4064 52.397L40.5282 51.3985C42.4323 50.5024 44.6127 50.3927 46.5972 51.0931L52 53" stroke="#F1F5F9" stroke-width="2" stroke-linecap="round"/>
</g>
<g filter="url(#filter11_df_4_34546)">
<path d="M18 48L23.4028 46.0931C25.3873 45.3927 27.5677 45.5024 29.4718 46.3985L31.5936 47.397C33.7511 48.4123 36.2489 48.4123 38.4064 47.397L40.5282 46.3985C42.4323 45.5024 44.6127 45.3927 46.5972 46.0931L52 48" stroke="#F1F5F9" stroke-width="2" stroke-linecap="round"/>
</g>
</g>
<g filter="url(#filter12_ii_4_34546)">
<path d="M19.2972 46H16.7028C15.873 46 15.2936 46.8221 15.5727 47.6036L18 54.4L20.4273 47.6036C20.7064 46.8221 20.127 46 19.2972 46Z" fill="#BFDBFE"/>
</g>
<path d="M16.7028 46.3H19.2972C19.9196 46.3 20.3541 46.9166 20.1448 47.5027L18 53.508L15.8552 47.5027C15.6459 46.9166 16.0804 46.3 16.7028 46.3Z" stroke="#93C5FD" stroke-width="0.6"/>
<path d="M18 52L16.2 47.2C16.2 47.2 16.6835 46.9764 17.04 46.96C17.44 46.9415 18 47.2 18 47.2V52Z" fill="white"/>
<defs>
<filter id="filter0_d_4_34546" x="5" y="11" width="54" height="38" filterUnits="userSpaceOnUse" color-interpolation-filters="sRGB">
<feFlood flood-opacity="0" result="BackgroundImageFix"/>
<feColorMatrix in="SourceAlpha" type="matrix" values="0 0 0 0 0 0 0 0 0 0 0 0 0 0 0 0 0 0 127 0" result="hardAlpha"/>
<feOffset dy="2"/>
<feGaussianBlur stdDeviation="2"/>
<feComposite in2="hardAlpha" operator="out"/>
<feColorMatrix type="matrix" values="0 0 0 0 0.278431 0 0 0 0 0.333333 0 0 0 0 0.411765 0 0 0 0.4 0"/>
<feBlend mode="normal" in2="BackgroundImageFix" result="effect1_dropShadow_4_34546"/>
<feBlend mode="normal" in="SourceGraphic" in2="effect1_dropShadow_4_34546" result="shape"/>
</filter>
<filter id="filter1_ii_4_34546" x="9" y="23" width="46" height="22" filterUnits="userSpaceOnUse" color-interpolation-filters="sRGB">
<feFlood flood-opacity="0" result="BackgroundImageFix"/>
<feBlend mode="normal" in="SourceGraphic" in2="BackgroundImageFix" result="shape"/>
<feColorMatrix in="SourceAlpha" type="matrix" values="0 0 0 0 0 0 0 0 0 0 0 0 0 0 0 0 0 0 127 0" result="hardAlpha"/>
<feOffset dy="2"/>
<feGaussianBlur stdDeviation="1"/>
<feComposite in2="hardAlpha" operator="arithmetic" k2="-1" k3="1"/>
<feColorMatrix type="matrix" values="0 0 0 0 0.796078 0 0 0 0 0.835294 0 0 0 0 0.882353 0 0 0 1 0"/>
<feBlend mode="normal" in2="shape" result="effect1_innerShadow_4_34546"/>
<feColorMatrix in="SourceAlpha" type="matrix" values="0 0 0 0 0 0 0 0 0 0 0 0 0 0 0 0 0 0 127 0" result="hardAlpha"/>
<feOffset dy="-2"/>
<feGaussianBlur stdDeviation="1"/>
<feComposite in2="hardAlpha" operator="arithmetic" k2="-1" k3="1"/>
<feColorMatrix type="matrix" values="0 0 0 0 0.796078 0 0 0 0 0.835294 0 0 0 0 0.882353 0 0 0 0.6 0"/>
<feBlend mode="normal" in2="effect1_innerShadow_4_34546" result="effect2_innerShadow_4_34546"/>
</filter>
<filter id="filter2_f_4_34546" x="9" y="29" width="14" height="14" filterUnits="userSpaceOnUse" color-interpolation-filters="sRGB">
<feFlood flood-opacity="0" result="BackgroundImageFix"/>
<feBlend mode="normal" in="SourceGraphic" in2="BackgroundImageFix" result="shape"/>
<feGaussianBlur stdDeviation="1" result="effect1_foregroundBlur_4_34546"/>
</filter>
<filter id="filter3_i_4_34546" x="15" y="21" width="16" height="18" filterUnits="userSpaceOnUse" color-interpolation-filters="sRGB">
<feFlood flood-opacity="0" result="BackgroundImageFix"/>
<feBlend mode="normal" in="SourceGraphic" in2="BackgroundImageFix" result="shape"/>
<feColorMatrix in="SourceAlpha" type="matrix" values="0 0 0 0 0 0 0 0 0 0 0 0 0 0 0 0 0 0 127 0" result="hardAlpha"/>
<feOffset dy="2"/>
<feGaussianBlur stdDeviation="1"/>
<feComposite in2="hardAlpha" operator="arithmetic" k2="-1" k3="1"/>
<feColorMatrix type="matrix" values="0 0 0 0 0.796078 0 0 0 0 0.835294 0 0 0 0 0.882353 0 0 0 1 0"/>
<feBlend mode="normal" in2="shape" result="effect1_innerShadow_4_34546"/>
</filter>
<filter id="filter4_f_4_34546" x="15" y="21" width="16" height="14" filterUnits="userSpaceOnUse" color-interpolation-filters="sRGB">
<feFlood flood-opacity="0" result="BackgroundImageFix"/>
<feBlend mode="normal" in="SourceGraphic" in2="BackgroundImageFix" result="shape"/>
<feGaussianBlur stdDeviation="1" result="effect1_foregroundBlur_4_34546"/>
</filter>
<filter id="filter5_f_4_34546" x="40" y="26" width="14" height="14" filterUnits="userSpaceOnUse" color-interpolation-filters="sRGB">
<feFlood flood-opacity="0" result="BackgroundImageFix"/>
<feBlend mode="normal" in="SourceGraphic" in2="BackgroundImageFix" result="shape"/>
<feGaussianBlur stdDeviation="1" result="effect1_foregroundBlur_4_34546"/>
</filter>
<filter id="filter6_i_4_34546" x="24" y="13" width="25" height="27" filterUnits="userSpaceOnUse" color-interpolation-filters="sRGB">
<feFlood flood-opacity="0" result="BackgroundImageFix"/>
<feBlend mode="normal" in="SourceGraphic" in2="BackgroundImageFix" result="shape"/>
<feColorMatrix in="SourceAlpha" type="matrix" values="0 0 0 0 0 0 0 0 0 0 0 0 0 0 0 0 0 0 127 0" result="hardAlpha"/>
<feOffset dy="2"/>
<feGaussianBlur stdDeviation="1"/>
<feComposite in2="hardAlpha" operator="arithmetic" k2="-1" k3="1"/>
<feColorMatrix type="matrix" values="0 0 0 0 0.796078 0 0 0 0 0.835294 0 0 0 0 0.882353 0 0 0 1 0"/>
<feBlend mode="normal" in2="shape" result="effect1_innerShadow_4_34546"/>
</filter>
<filter id="filter7_f_4_34546" x="27" y="13" width="18" height="14" filterUnits="userSpaceOnUse" color-interpolation-filters="sRGB">
<feFlood flood-opacity="0" result="BackgroundImageFix"/>
<feBlend mode="normal" in="SourceGraphic" in2="BackgroundImageFix" result="shape"/>
<feGaussianBlur stdDeviation="1" result="effect1_foregroundBlur_4_34546"/>
</filter>
<filter id="filter8_i_4_34546" x="23" y="27" width="18" height="15" filterUnits="userSpaceOnUse" color-interpolation-filters="sRGB">
<feFlood flood-opacity="0" result="BackgroundImageFix"/>
<feBlend mode="normal" in="SourceGraphic" in2="BackgroundImageFix" result="shape"/>
<feColorMatrix in="SourceAlpha" type="matrix" values="0 0 0 0 0 0 0 0 0 0 0 0 0 0 0 0 0 0 127 0" result="hardAlpha"/>
<feOffset dy="2"/>
<feGaussianBlur stdDeviation="1"/>
<feComposite in2="hardAlpha" operator="arithmetic" k2="-1" k3="1"/>
<feColorMatrix type="matrix" values="0 0 0 0 0.796078 0 0 0 0 0.835294 0 0 0 0 0.882353 0 0 0 0.6 0"/>
<feBlend mode="normal" in2="shape" result="effect1_innerShadow_4_34546"/>
</filter>
<filter id="filter9_f_4_34546" x="23" y="27" width="18" height="13" filterUnits="userSpaceOnUse" color-interpolation-filters="sRGB">
<feFlood flood-opacity="0" result="BackgroundImageFix"/>
<feBlend mode="normal" in="SourceGraphic" in2="BackgroundImageFix" result="shape"/>
<feGaussianBlur stdDeviation="1" result="effect1_foregroundBlur_4_34546"/>
</filter>
<filter id="filter10_df_4_34546" x="12.9998" y="45.637" width="44.0005" height="12.5214" filterUnits="userSpaceOnUse" color-interpolation-filters="sRGB">
<feFlood flood-opacity="0" result="BackgroundImageFix"/>
<feColorMatrix in="SourceAlpha" type="matrix" values="0 0 0 0 0 0 0 0 0 0 0 0 0 0 0 0 0 0 127 0" result="hardAlpha"/>
<feOffset/>
<feGaussianBlur stdDeviation="2"/>
<feComposite in2="hardAlpha" operator="out"/>
<feColorMatrix type="matrix" values="0 0 0 0 0.580392 0 0 0 0 0.639216 0 0 0 0 0.721569 0 0 0 1 0"/>
<feBlend mode="normal" in2="BackgroundImageFix" result="effect1_dropShadow_4_34546"/>
<feBlend mode="normal" in="SourceGraphic" in2="effect1_dropShadow_4_34546" result="shape"/>
<feGaussianBlur stdDeviation="0.5" result="effect2_foregroundBlur_4_34546"/>
</filter>
<filter id="filter11_df_4_34546" x="12.9998" y="40.637" width="44.0005" height="12.5214" filterUnits="userSpaceOnUse" color-interpolation-filters="sRGB">
<feFlood flood-opacity="0" result="BackgroundImageFix"/>
<feColorMatrix in="SourceAlpha" type="matrix" values="0 0 0 0 0 0 0 0 0 0 0 0 0 0 0 0 0 0 127 0" result="hardAlpha"/>
<feOffset/>
<feGaussianBlur stdDeviation="2"/>
<feComposite in2="hardAlpha" operator="out"/>
<feColorMatrix type="matrix" values="0 0 0 0 0.580392 0 0 0 0 0.639216 0 0 0 0 0.721569 0 0 0 1 0"/>
<feBlend mode="normal" in2="BackgroundImageFix" result="effect1_dropShadow_4_34546"/>
<feBlend mode="normal" in="SourceGraphic" in2="effect1_dropShadow_4_34546" result="shape"/>
<feGaussianBlur stdDeviation="0.5" result="effect2_foregroundBlur_4_34546"/>
</filter>
<filter id="filter12_ii_4_34546" x="15.5018" y="46" width="4.99646" height="8.99999" filterUnits="userSpaceOnUse" color-interpolation-filters="sRGB">
<feFlood flood-opacity="0" result="BackgroundImageFix"/>
<feBlend mode="normal" in="SourceGraphic" in2="BackgroundImageFix" result="shape"/>
<feColorMatrix in="SourceAlpha" type="matrix" values="0 0 0 0 0 0 0 0 0 0 0 0 0 0 0 0 0 0 127 0" result="hardAlpha"/>
<feOffset dy="1.2"/>
<feComposite in2="hardAlpha" operator="arithmetic" k2="-1" k3="1"/>
<feColorMatrix type="matrix" values="0 0 0 0 0.883333 0 0 0 0 0.938365 0 0 0 0 1 0 0 0 1 0"/>
<feBlend mode="normal" in2="shape" result="effect1_innerShadow_4_34546"/>
<feColorMatrix in="SourceAlpha" type="matrix" values="0 0 0 0 0 0 0 0 0 0 0 0 0 0 0 0 0 0 127 0" result="hardAlpha"/>
<feOffset dy="0.6"/>
<feGaussianBlur stdDeviation="0.3"/>
<feComposite in2="hardAlpha" operator="arithmetic" k2="-1" k3="1"/>
<feColorMatrix type="matrix" values="0 0 0 0 0.123958 0 0 0 0 0.533247 0 0 0 0 0.991667 0 0 0 1 0"/>
<feBlend mode="normal" in2="effect1_innerShadow_4_34546" result="effect2_innerShadow_4_34546"/>
</filter>
<linearGradient id="paint0_linear_4_34546" x1="16" y1="31" x2="16" y2="41" gradientUnits="userSpaceOnUse">
<stop stop-color="white"/>
<stop offset="1" stop-color="#F3F3F3" stop-opacity="0.2"/>
</linearGradient>
<linearGradient id="paint1_linear_4_34546" x1="23" y1="23" x2="23" y2="33" gradientUnits="userSpaceOnUse">
<stop stop-color="white"/>
<stop offset="1" stop-color="#F3F3F3" stop-opacity="0.2"/>
</linearGradient>
<linearGradient id="paint2_linear_4_34546" x1="47" y1="28" x2="47" y2="38" gradientUnits="userSpaceOnUse">
<stop stop-color="white"/>
<stop offset="1" stop-color="#F3F3F3" stop-opacity="0.2"/>
</linearGradient>
<linearGradient id="paint3_linear_4_34546" x1="36" y1="15" x2="36" y2="25" gradientUnits="userSpaceOnUse">
<stop stop-color="white"/>
<stop offset="1" stop-color="#F3F3F3" stop-opacity="0.2"/>
</linearGradient>
<linearGradient id="paint4_linear_4_34546" x1="32" y1="27" x2="32" y2="40" gradientUnits="userSpaceOnUse">
<stop stop-color="#F1F5F9"/>
<stop offset="0.650321" stop-color="#F1F5F9" stop-opacity="0"/>
</linearGradient>
<linearGradient id="paint5_linear_4_34546" x1="32" y1="29" x2="32" y2="38" gradientUnits="userSpaceOnUse">
<stop stop-color="white"/>
<stop offset="1" stop-color="#F3F3F3" stop-opacity="0.2"/>
</linearGradient>
<clipPath id="clip0_4_34546">
<rect width="36" height="16" fill="white" transform="translate(22 41)"/>
</clipPath>
</defs>
</svg>
