<svg width="64" height="64" viewBox="0 0 64 64" fill="none" xmlns="http://www.w3.org/2000/svg">
<g filter="url(#filter0_f_4_34552)">
<path d="M17.0645 47.7391C16.1355 43.913 13.9677 42.3188 13 42H49C47.4516 43.7536 45.5161 46.2087 45.5161 47.7391C45.5161 49.2696 45.9032 51.8841 46.6774 53H15.9032C16.6774 52.8406 17.9935 51.5652 17.0645 47.7391Z" fill="url(#paint0_linear_4_34552)"/>
</g>
<g filter="url(#filter1_d_4_34552)">
<path fill-rule="evenodd" clip-rule="evenodd" d="M49 25.5121C49 25.5081 49 25.504 49 25.5C49 18.5964 43.4036 13 36.5 13C31.1094 13 26.5158 16.4122 24.7613 21.1945C24.1946 21.0672 23.6051 21 23 21C18.5817 21 15 24.5817 15 29C15 29.0236 15.0001 29.0473 15.0003 29.0708C11.6079 29.5559 9 32.4734 9 36C9 39.866 12.134 43 16 43H46C50.9706 43 55 38.9706 55 34C55 30.0813 52.4956 26.7476 49 25.5121Z" fill="#64748B"/>
</g>
<g filter="url(#filter2_ii_4_34552)">
<path fill-rule="evenodd" clip-rule="evenodd" d="M55 34C55 38.9706 50.9706 43 46 43H16C12.134 43 9 39.866 9 36C9 32.134 12.134 29 16 29C18.7924 29 21.2029 30.6351 22.3264 33H37.0549C37.5524 28.5 41.3674 25 46 25C50.9706 25 55 29.0294 55 34Z" fill="#F1F5F9"/>
</g>
<g filter="url(#filter3_f_4_34552)">
<circle cx="16" cy="36" r="5" fill="url(#paint1_linear_4_34552)" style="mix-blend-mode:soft-light"/>
</g>
<g filter="url(#filter4_i_4_34552)">
<circle cx="23" cy="29" r="8" fill="#F1F5F9"/>
</g>
<g filter="url(#filter5_f_4_34552)">
<ellipse cx="23" cy="28" rx="6" ry="5" fill="url(#paint2_linear_4_34552)" style="mix-blend-mode:soft-light"/>
</g>
<g filter="url(#filter6_f_4_34552)">
<circle cx="47" cy="33" r="5" fill="url(#paint3_linear_4_34552)" style="mix-blend-mode:soft-light"/>
</g>
<g filter="url(#filter7_i_4_34552)">
<circle cx="36.5" cy="25.5" r="12.5" fill="#F1F5F9"/>
</g>
<g filter="url(#filter8_f_4_34552)">
<ellipse cx="36" cy="20" rx="7" ry="5" fill="url(#paint4_linear_4_34552)" style="mix-blend-mode:soft-light"/>
</g>
<g filter="url(#filter9_i_4_34552)">
<ellipse cx="32" cy="33.5" rx="9" ry="6.5" fill="url(#paint5_linear_4_34552)"/>
</g>
<g filter="url(#filter10_f_4_34552)">
<ellipse cx="32" cy="33.5" rx="7" ry="4.5" fill="url(#paint6_linear_4_34552)" style="mix-blend-mode:soft-light"/>
</g>
<path fill-rule="evenodd" clip-rule="evenodd" d="M49 25.5121C49 25.5081 49 25.504 49 25.5C49 18.5964 43.4036 13 36.5 13C31.1094 13 26.5158 16.4122 24.7613 21.1945C24.1946 21.0672 23.6051 21 23 21C18.5817 21 15 24.5817 15 29C15 29.0236 15.0001 29.0473 15.0003 29.0708C11.6079 29.5559 9 32.4734 9 36C9 39.866 12.134 43 16 43H46C50.9706 43 55 38.9706 55 34C55 30.0813 52.4956 26.7476 49 25.5121Z" fill="#93C5FD" style="mix-blend-mode:color"/>
<path fill-rule="evenodd" clip-rule="evenodd" d="M49 25.5121C49 25.5081 49 25.504 49 25.5C49 18.5964 43.4036 13 36.5 13C31.1094 13 26.5158 16.4122 24.7613 21.1945C24.1946 21.0672 23.6051 21 23 21C18.5817 21 15 24.5817 15 29C15 29.0236 15.0001 29.0473 15.0003 29.0708C11.6079 29.5559 9 32.4734 9 36C9 39.866 12.134 43 16 43H46C50.9706 43 55 38.9706 55 34C55 30.0813 52.4956 26.7476 49 25.5121Z" fill="#93C5FD" fill-opacity="0.2" style="mix-blend-mode:multiply"/>
<g filter="url(#filter11_ii_4_34552)">
<path d="M19.7588 52.9402L23.3735 47.0253C23.4913 46.8325 23.7884 46.9524 23.7393 47.1729L22.2356 53.9398C22.0979 54.5593 21.5485 55 20.914 55C19.8567 55 19.2075 53.8423 19.7588 52.9402Z" fill="#3B82F6"/>
</g>
<path d="M21.8204 54.0909C21.6045 54.5993 21.0174 54.8363 20.5091 54.6204C20.0007 54.4044 19.7637 53.8173 19.9796 53.309C20.1956 52.8007 22.4917 48.2841 23 48.5C23.5083 48.716 22.0364 53.5826 21.8204 54.0909Z" fill="url(#paint7_radial_4_34552)"/>
<g filter="url(#filter12_ii_4_34552)">
<path d="M26.2588 52.9402L29.8735 47.0253C29.9913 46.8325 30.2884 46.9524 30.2393 47.1729L28.7356 53.9398C28.5979 54.5593 28.0485 55 27.414 55C26.3567 55 25.7075 53.8423 26.2588 52.9402Z" fill="#3B82F6"/>
</g>
<path d="M28.3204 54.0909C28.1045 54.5993 27.5174 54.8363 27.0091 54.6204C26.5007 54.4044 26.2637 53.8173 26.4796 53.309C26.6956 52.8007 28.9917 48.2841 29.5 48.5C30.0083 48.716 28.5364 53.5826 28.3204 54.0909Z" fill="url(#paint8_radial_4_34552)"/>
<g filter="url(#filter13_ii_4_34552)">
<path d="M32.7588 52.9402L36.3735 47.0253C36.4913 46.8325 36.7884 46.9524 36.7393 47.1729L35.2356 53.9398C35.0979 54.5593 34.5485 55 33.914 55C32.8567 55 32.2075 53.8423 32.7588 52.9402Z" fill="#3B82F6"/>
</g>
<path d="M34.8204 54.0909C34.6045 54.5993 34.0174 54.8363 33.5091 54.6204C33.0007 54.4044 32.7637 53.8173 32.9796 53.309C33.1956 52.8007 35.4917 48.2841 36 48.5C36.5083 48.716 35.0364 53.5826 34.8204 54.0909Z" fill="url(#paint9_radial_4_34552)"/>
<g filter="url(#filter14_ii_4_34552)">
<path d="M39.2588 52.9402L42.8735 47.0253C42.9913 46.8325 43.2884 46.9524 43.2393 47.1729L41.7356 53.9398C41.5979 54.5593 41.0485 55 40.414 55C39.3567 55 38.7075 53.8423 39.2588 52.9402Z" fill="#3B82F6"/>
</g>
<path d="M41.3204 54.0909C41.1045 54.5993 40.5174 54.8363 40.0091 54.6204C39.5007 54.4044 39.2637 53.8173 39.4796 53.309C39.6956 52.8007 41.9917 48.2841 42.5 48.5C43.0083 48.716 41.5364 53.5826 41.3204 54.0909Z" fill="url(#paint10_radial_4_34552)"/>
<defs>
<filter id="filter0_f_4_34552" x="11" y="40" width="40" height="15" filterUnits="userSpaceOnUse" color-interpolation-filters="sRGB">
<feFlood flood-opacity="0" result="BackgroundImageFix"/>
<feBlend mode="normal" in="SourceGraphic" in2="BackgroundImageFix" result="shape"/>
<feGaussianBlur stdDeviation="1" result="effect1_foregroundBlur_4_34552"/>
</filter>
<filter id="filter1_d_4_34552" x="5" y="11" width="54" height="38" filterUnits="userSpaceOnUse" color-interpolation-filters="sRGB">
<feFlood flood-opacity="0" result="BackgroundImageFix"/>
<feColorMatrix in="SourceAlpha" type="matrix" values="0 0 0 0 0 0 0 0 0 0 0 0 0 0 0 0 0 0 127 0" result="hardAlpha"/>
<feOffset dy="2"/>
<feGaussianBlur stdDeviation="2"/>
<feComposite in2="hardAlpha" operator="out"/>
<feColorMatrix type="matrix" values="0 0 0 0 0.278431 0 0 0 0 0.333333 0 0 0 0 0.411765 0 0 0 0.4 0"/>
<feBlend mode="normal" in2="BackgroundImageFix" result="effect1_dropShadow_4_34552"/>
<feBlend mode="normal" in="SourceGraphic" in2="effect1_dropShadow_4_34552" result="shape"/>
</filter>
<filter id="filter2_ii_4_34552" x="9" y="23" width="46" height="22" filterUnits="userSpaceOnUse" color-interpolation-filters="sRGB">
<feFlood flood-opacity="0" result="BackgroundImageFix"/>
<feBlend mode="normal" in="SourceGraphic" in2="BackgroundImageFix" result="shape"/>
<feColorMatrix in="SourceAlpha" type="matrix" values="0 0 0 0 0 0 0 0 0 0 0 0 0 0 0 0 0 0 127 0" result="hardAlpha"/>
<feOffset dy="2"/>
<feGaussianBlur stdDeviation="1"/>
<feComposite in2="hardAlpha" operator="arithmetic" k2="-1" k3="1"/>
<feColorMatrix type="matrix" values="0 0 0 0 0.796078 0 0 0 0 0.835294 0 0 0 0 0.882353 0 0 0 1 0"/>
<feBlend mode="normal" in2="shape" result="effect1_innerShadow_4_34552"/>
<feColorMatrix in="SourceAlpha" type="matrix" values="0 0 0 0 0 0 0 0 0 0 0 0 0 0 0 0 0 0 127 0" result="hardAlpha"/>
<feOffset dy="-2"/>
<feGaussianBlur stdDeviation="1"/>
<feComposite in2="hardAlpha" operator="arithmetic" k2="-1" k3="1"/>
<feColorMatrix type="matrix" values="0 0 0 0 0.796078 0 0 0 0 0.835294 0 0 0 0 0.882353 0 0 0 0.6 0"/>
<feBlend mode="normal" in2="effect1_innerShadow_4_34552" result="effect2_innerShadow_4_34552"/>
</filter>
<filter id="filter3_f_4_34552" x="9" y="29" width="14" height="14" filterUnits="userSpaceOnUse" color-interpolation-filters="sRGB">
<feFlood flood-opacity="0" result="BackgroundImageFix"/>
<feBlend mode="normal" in="SourceGraphic" in2="BackgroundImageFix" result="shape"/>
<feGaussianBlur stdDeviation="1" result="effect1_foregroundBlur_4_34552"/>
</filter>
<filter id="filter4_i_4_34552" x="15" y="21" width="16" height="18" filterUnits="userSpaceOnUse" color-interpolation-filters="sRGB">
<feFlood flood-opacity="0" result="BackgroundImageFix"/>
<feBlend mode="normal" in="SourceGraphic" in2="BackgroundImageFix" result="shape"/>
<feColorMatrix in="SourceAlpha" type="matrix" values="0 0 0 0 0 0 0 0 0 0 0 0 0 0 0 0 0 0 127 0" result="hardAlpha"/>
<feOffset dy="2"/>
<feGaussianBlur stdDeviation="1"/>
<feComposite in2="hardAlpha" operator="arithmetic" k2="-1" k3="1"/>
<feColorMatrix type="matrix" values="0 0 0 0 0.796078 0 0 0 0 0.835294 0 0 0 0 0.882353 0 0 0 1 0"/>
<feBlend mode="normal" in2="shape" result="effect1_innerShadow_4_34552"/>
</filter>
<filter id="filter5_f_4_34552" x="15" y="21" width="16" height="14" filterUnits="userSpaceOnUse" color-interpolation-filters="sRGB">
<feFlood flood-opacity="0" result="BackgroundImageFix"/>
<feBlend mode="normal" in="SourceGraphic" in2="BackgroundImageFix" result="shape"/>
<feGaussianBlur stdDeviation="1" result="effect1_foregroundBlur_4_34552"/>
</filter>
<filter id="filter6_f_4_34552" x="40" y="26" width="14" height="14" filterUnits="userSpaceOnUse" color-interpolation-filters="sRGB">
<feFlood flood-opacity="0" result="BackgroundImageFix"/>
<feBlend mode="normal" in="SourceGraphic" in2="BackgroundImageFix" result="shape"/>
<feGaussianBlur stdDeviation="1" result="effect1_foregroundBlur_4_34552"/>
</filter>
<filter id="filter7_i_4_34552" x="24" y="13" width="25" height="27" filterUnits="userSpaceOnUse" color-interpolation-filters="sRGB">
<feFlood flood-opacity="0" result="BackgroundImageFix"/>
<feBlend mode="normal" in="SourceGraphic" in2="BackgroundImageFix" result="shape"/>
<feColorMatrix in="SourceAlpha" type="matrix" values="0 0 0 0 0 0 0 0 0 0 0 0 0 0 0 0 0 0 127 0" result="hardAlpha"/>
<feOffset dy="2"/>
<feGaussianBlur stdDeviation="1"/>
<feComposite in2="hardAlpha" operator="arithmetic" k2="-1" k3="1"/>
<feColorMatrix type="matrix" values="0 0 0 0 0.796078 0 0 0 0 0.835294 0 0 0 0 0.882353 0 0 0 1 0"/>
<feBlend mode="normal" in2="shape" result="effect1_innerShadow_4_34552"/>
</filter>
<filter id="filter8_f_4_34552" x="27" y="13" width="18" height="14" filterUnits="userSpaceOnUse" color-interpolation-filters="sRGB">
<feFlood flood-opacity="0" result="BackgroundImageFix"/>
<feBlend mode="normal" in="SourceGraphic" in2="BackgroundImageFix" result="shape"/>
<feGaussianBlur stdDeviation="1" result="effect1_foregroundBlur_4_34552"/>
</filter>
<filter id="filter9_i_4_34552" x="23" y="27" width="18" height="15" filterUnits="userSpaceOnUse" color-interpolation-filters="sRGB">
<feFlood flood-opacity="0" result="BackgroundImageFix"/>
<feBlend mode="normal" in="SourceGraphic" in2="BackgroundImageFix" result="shape"/>
<feColorMatrix in="SourceAlpha" type="matrix" values="0 0 0 0 0 0 0 0 0 0 0 0 0 0 0 0 0 0 127 0" result="hardAlpha"/>
<feOffset dy="2"/>
<feGaussianBlur stdDeviation="1"/>
<feComposite in2="hardAlpha" operator="arithmetic" k2="-1" k3="1"/>
<feColorMatrix type="matrix" values="0 0 0 0 0.796078 0 0 0 0 0.835294 0 0 0 0 0.882353 0 0 0 0.6 0"/>
<feBlend mode="normal" in2="shape" result="effect1_innerShadow_4_34552"/>
</filter>
<filter id="filter10_f_4_34552" x="23" y="27" width="18" height="13" filterUnits="userSpaceOnUse" color-interpolation-filters="sRGB">
<feFlood flood-opacity="0" result="BackgroundImageFix"/>
<feBlend mode="normal" in="SourceGraphic" in2="BackgroundImageFix" result="shape"/>
<feGaussianBlur stdDeviation="1" result="effect1_foregroundBlur_4_34552"/>
</filter>
<filter id="filter11_ii_4_34552" x="19.558" y="46.4286" width="4.18677" height="8.57135" filterUnits="userSpaceOnUse" color-interpolation-filters="sRGB">
<feFlood flood-opacity="0" result="BackgroundImageFix"/>
<feBlend mode="normal" in="SourceGraphic" in2="BackgroundImageFix" result="shape"/>
<feColorMatrix in="SourceAlpha" type="matrix" values="0 0 0 0 0 0 0 0 0 0 0 0 0 0 0 0 0 0 127 0" result="hardAlpha"/>
<feOffset dy="-1"/>
<feComposite in2="hardAlpha" operator="arithmetic" k2="-1" k3="1"/>
<feColorMatrix type="matrix" values="0 0 0 0 0.231373 0 0 0 0 0.509804 0 0 0 0 0.964706 0 0 0 1 0"/>
<feBlend mode="normal" in2="shape" result="effect1_innerShadow_4_34552"/>
<feColorMatrix in="SourceAlpha" type="matrix" values="0 0 0 0 0 0 0 0 0 0 0 0 0 0 0 0 0 0 127 0" result="hardAlpha"/>
<feOffset dy="-0.5"/>
<feGaussianBlur stdDeviation="0.25"/>
<feComposite in2="hardAlpha" operator="arithmetic" k2="-1" k3="1"/>
<feColorMatrix type="matrix" values="0 0 0 0 0.113438 0 0 0 0 0.33625 0 0 0 0 0.825 0 0 0 1 0"/>
<feBlend mode="normal" in2="effect1_innerShadow_4_34552" result="effect2_innerShadow_4_34552"/>
</filter>
<filter id="filter12_ii_4_34552" x="26.058" y="46.4286" width="4.18677" height="8.57135" filterUnits="userSpaceOnUse" color-interpolation-filters="sRGB">
<feFlood flood-opacity="0" result="BackgroundImageFix"/>
<feBlend mode="normal" in="SourceGraphic" in2="BackgroundImageFix" result="shape"/>
<feColorMatrix in="SourceAlpha" type="matrix" values="0 0 0 0 0 0 0 0 0 0 0 0 0 0 0 0 0 0 127 0" result="hardAlpha"/>
<feOffset dy="-1"/>
<feComposite in2="hardAlpha" operator="arithmetic" k2="-1" k3="1"/>
<feColorMatrix type="matrix" values="0 0 0 0 0.231373 0 0 0 0 0.509804 0 0 0 0 0.964706 0 0 0 1 0"/>
<feBlend mode="normal" in2="shape" result="effect1_innerShadow_4_34552"/>
<feColorMatrix in="SourceAlpha" type="matrix" values="0 0 0 0 0 0 0 0 0 0 0 0 0 0 0 0 0 0 127 0" result="hardAlpha"/>
<feOffset dy="-0.5"/>
<feGaussianBlur stdDeviation="0.25"/>
<feComposite in2="hardAlpha" operator="arithmetic" k2="-1" k3="1"/>
<feColorMatrix type="matrix" values="0 0 0 0 0.113438 0 0 0 0 0.33625 0 0 0 0 0.825 0 0 0 1 0"/>
<feBlend mode="normal" in2="effect1_innerShadow_4_34552" result="effect2_innerShadow_4_34552"/>
</filter>
<filter id="filter13_ii_4_34552" x="32.558" y="46.4286" width="4.18677" height="8.57135" filterUnits="userSpaceOnUse" color-interpolation-filters="sRGB">
<feFlood flood-opacity="0" result="BackgroundImageFix"/>
<feBlend mode="normal" in="SourceGraphic" in2="BackgroundImageFix" result="shape"/>
<feColorMatrix in="SourceAlpha" type="matrix" values="0 0 0 0 0 0 0 0 0 0 0 0 0 0 0 0 0 0 127 0" result="hardAlpha"/>
<feOffset dy="-1"/>
<feComposite in2="hardAlpha" operator="arithmetic" k2="-1" k3="1"/>
<feColorMatrix type="matrix" values="0 0 0 0 0.231373 0 0 0 0 0.509804 0 0 0 0 0.964706 0 0 0 1 0"/>
<feBlend mode="normal" in2="shape" result="effect1_innerShadow_4_34552"/>
<feColorMatrix in="SourceAlpha" type="matrix" values="0 0 0 0 0 0 0 0 0 0 0 0 0 0 0 0 0 0 127 0" result="hardAlpha"/>
<feOffset dy="-0.5"/>
<feGaussianBlur stdDeviation="0.25"/>
<feComposite in2="hardAlpha" operator="arithmetic" k2="-1" k3="1"/>
<feColorMatrix type="matrix" values="0 0 0 0 0.113438 0 0 0 0 0.33625 0 0 0 0 0.825 0 0 0 1 0"/>
<feBlend mode="normal" in2="effect1_innerShadow_4_34552" result="effect2_innerShadow_4_34552"/>
</filter>
<filter id="filter14_ii_4_34552" x="39.058" y="46.4286" width="4.18677" height="8.57135" filterUnits="userSpaceOnUse" color-interpolation-filters="sRGB">
<feFlood flood-opacity="0" result="BackgroundImageFix"/>
<feBlend mode="normal" in="SourceGraphic" in2="BackgroundImageFix" result="shape"/>
<feColorMatrix in="SourceAlpha" type="matrix" values="0 0 0 0 0 0 0 0 0 0 0 0 0 0 0 0 0 0 127 0" result="hardAlpha"/>
<feOffset dy="-1"/>
<feComposite in2="hardAlpha" operator="arithmetic" k2="-1" k3="1"/>
<feColorMatrix type="matrix" values="0 0 0 0 0.231373 0 0 0 0 0.509804 0 0 0 0 0.964706 0 0 0 1 0"/>
<feBlend mode="normal" in2="shape" result="effect1_innerShadow_4_34552"/>
<feColorMatrix in="SourceAlpha" type="matrix" values="0 0 0 0 0 0 0 0 0 0 0 0 0 0 0 0 0 0 127 0" result="hardAlpha"/>
<feOffset dy="-0.5"/>
<feGaussianBlur stdDeviation="0.25"/>
<feComposite in2="hardAlpha" operator="arithmetic" k2="-1" k3="1"/>
<feColorMatrix type="matrix" values="0 0 0 0 0.113438 0 0 0 0 0.33625 0 0 0 0 0.825 0 0 0 1 0"/>
<feBlend mode="normal" in2="effect1_innerShadow_4_34552" result="effect2_innerShadow_4_34552"/>
</filter>
<linearGradient id="paint0_linear_4_34552" x1="31" y1="42" x2="31" y2="53" gradientUnits="userSpaceOnUse">
<stop stop-color="#BAE6FD"/>
<stop offset="1" stop-color="#BAE6FD" stop-opacity="0"/>
</linearGradient>
<linearGradient id="paint1_linear_4_34552" x1="16" y1="31" x2="16" y2="41" gradientUnits="userSpaceOnUse">
<stop stop-color="white"/>
<stop offset="1" stop-color="#F3F3F3" stop-opacity="0.2"/>
</linearGradient>
<linearGradient id="paint2_linear_4_34552" x1="23" y1="23" x2="23" y2="33" gradientUnits="userSpaceOnUse">
<stop stop-color="white"/>
<stop offset="1" stop-color="#F3F3F3" stop-opacity="0.2"/>
</linearGradient>
<linearGradient id="paint3_linear_4_34552" x1="47" y1="28" x2="47" y2="38" gradientUnits="userSpaceOnUse">
<stop stop-color="white"/>
<stop offset="1" stop-color="#F3F3F3" stop-opacity="0.2"/>
</linearGradient>
<linearGradient id="paint4_linear_4_34552" x1="36" y1="15" x2="36" y2="25" gradientUnits="userSpaceOnUse">
<stop stop-color="white"/>
<stop offset="1" stop-color="#F3F3F3" stop-opacity="0.2"/>
</linearGradient>
<linearGradient id="paint5_linear_4_34552" x1="32" y1="27" x2="32" y2="40" gradientUnits="userSpaceOnUse">
<stop stop-color="#F1F5F9"/>
<stop offset="0.650321" stop-color="#F1F5F9" stop-opacity="0"/>
</linearGradient>
<linearGradient id="paint6_linear_4_34552" x1="32" y1="29" x2="32" y2="38" gradientUnits="userSpaceOnUse">
<stop stop-color="white"/>
<stop offset="1" stop-color="#F3F3F3" stop-opacity="0.2"/>
</linearGradient>
<radialGradient id="paint7_radial_4_34552" cx="0" cy="0" r="1" gradientUnits="userSpaceOnUse" gradientTransform="translate(20.5 54.5) rotate(-68.1986) scale(5.38516)">
<stop stop-color="#74D5FF"/>
<stop offset="0.37551" stop-color="#74D5FF" stop-opacity="0"/>
</radialGradient>
<radialGradient id="paint8_radial_4_34552" cx="0" cy="0" r="1" gradientUnits="userSpaceOnUse" gradientTransform="translate(27 54.5) rotate(-68.1986) scale(5.38516)">
<stop stop-color="#74D5FF"/>
<stop offset="0.37551" stop-color="#74D5FF" stop-opacity="0"/>
</radialGradient>
<radialGradient id="paint9_radial_4_34552" cx="0" cy="0" r="1" gradientUnits="userSpaceOnUse" gradientTransform="translate(33.5 54.5) rotate(-68.1986) scale(5.38516)">
<stop stop-color="#74D5FF"/>
<stop offset="0.37551" stop-color="#74D5FF" stop-opacity="0"/>
</radialGradient>
<radialGradient id="paint10_radial_4_34552" cx="0" cy="0" r="1" gradientUnits="userSpaceOnUse" gradientTransform="translate(40 54.5) rotate(-68.1986) scale(5.38516)">
<stop stop-color="#74D5FF"/>
<stop offset="0.37551" stop-color="#74D5FF" stop-opacity="0"/>
</radialGradient>
</defs>
</svg>
