<svg width="36" height="36" viewBox="0 0 36 36" fill="none" xmlns="http://www.w3.org/2000/svg">
<g filter="url(#filter0_ii_4_34401)">
<circle cx="18" cy="17.9995" r="16" fill="url(#paint0_linear_4_34401)"/>
</g>
<g style="mix-blend-mode:multiply" opacity="0.6">
<path fill-rule="evenodd" clip-rule="evenodd" d="M8.20457 22.1914C8.08385 22.985 7.96898 22.8759 7.77129 22.6881L7.77128 22.6881C7.59564 22.5213 7.35462 22.2924 6.98605 22.5792C6.72115 22.875 6.34388 23.5717 6.52208 23.7673C7.56079 23.5767 7.55598 24.7435 6.50442 24.5298C5.83815 24.8806 5.40987 24.6588 5.13505 24.5165C4.90262 24.3961 4.77997 24.3326 4.71597 24.7204C4.80456 25.2477 5.23348 25.3439 5.58128 25.4218C5.91418 25.4964 6.17276 25.5544 5.98747 25.9578L5.98079 25.9903L5.98079 25.9904C5.90335 26.3669 5.8454 26.6487 6.43539 26.7302C7.06125 26.6951 7.03085 27.2599 7.00197 27.7964C6.97003 28.3898 6.93994 28.9487 7.80161 28.6233C9.21503 28.5198 8.75595 29.3791 8.28257 30.2651C8.22598 30.371 8.16919 30.4773 8.11537 30.5824C4.39147 27.6528 2 23.1057 2 18C2 12.4629 4.81271 7.5827 9.08728 4.7103C9.24784 4.74412 9.40286 4.81595 9.54511 4.94961L9.54671 4.9529C9.51461 4.74042 9.57079 4.5255 9.67527 4.33352C10.0258 4.11953 10.3852 3.91865 10.7529 3.73157C10.8405 3.81673 10.8793 3.98199 10.8343 4.24955C10.9109 4.28325 10.9988 4.2837 11.0801 4.2841H11.0801C11.2523 4.28498 11.3946 4.28571 11.3368 4.60285C11.3123 4.89047 11.0505 4.95037 10.8068 5.0061L10.8068 5.00611C10.5076 5.07459 10.2358 5.13679 10.465 5.60694C10.441 5.69625 10.4119 5.79121 10.3818 5.88975C10.1921 6.50925 9.95887 7.27113 10.6625 7.67093C11.619 5.15575 13.5864 5.88658 14.6738 6.29051L14.6739 6.29053C15.293 6.52049 15.6268 6.64447 15.3263 6.00297C13.403 5.33577 14.4144 3.39828 16.1466 4.21341C15.8719 3.80967 15.4573 3.73158 15.0532 3.65544L15.0531 3.65541L15.053 3.65541C14.6331 3.57633 14.2244 3.49937 13.9954 3.06143C14.0051 2.92381 14.1502 2.6847 14.327 2.42359C14.917 2.28501 15.5195 2.17909 16.1326 2.10782C16.3014 2.78424 16.6143 3.34265 17.028 3.27503C17.2299 3.32053 17.4813 3.316 17.7345 3.31142L17.7346 3.31142C18.3411 3.30051 18.9581 3.28941 18.9321 3.96526C19.5673 3.68763 19.6604 4.06591 19.751 4.43373L19.751 4.43375C19.781 4.55579 19.8108 4.67671 19.86 4.77212C21.8703 5.84528 21.3149 6.02719 20.6982 6.22915L20.6982 6.22917L20.6981 6.22919C20.262 6.37205 19.7952 6.52492 20.1843 7.01031C19.9348 7.39582 19.5096 7.16128 19.0772 6.92268C18.5971 6.65785 18.1081 6.38808 17.8404 6.9561C17.7274 7.24479 18.1401 7.55478 18.6062 7.90488L18.6062 7.90495C19.1669 8.32609 19.8048 8.80525 19.6979 9.37507C19.2974 9.96889 19.6718 10.3311 20.0718 10.7181C20.4512 11.0851 20.8536 11.4744 20.6402 12.1046C20.3705 12.8211 21.4638 13.1728 21.6806 12.3429C21.8299 11.7316 22.2938 11.9551 22.7064 12.2262C22.0225 11.6543 21.5778 9.35534 22.8959 10.366C22.9755 10.843 23.3427 11.0568 23.6947 11.2618C24.1019 11.4988 24.4889 11.7242 24.3873 12.3314C23.7383 13.4855 26.0515 14.797 28.1548 15.9895C29.5166 16.7616 30.7908 17.4841 31.1157 18.0814C30.9776 19.0345 31.6037 18.7404 31.4143 17.9828C31.4312 17.8838 31.3779 17.7733 31.3271 17.6681L31.3271 17.6681L31.327 17.668C31.2473 17.5027 31.1738 17.3505 31.3886 17.2762C31.6396 17.1887 31.6994 17.3892 31.7624 17.6L31.7624 17.6L31.7625 17.6C31.7942 17.7061 31.8266 17.8149 31.8847 17.8908C32.0469 16.1653 33.6876 19.0559 32.0131 19.3632C33.3201 20.3695 33.0473 21.5891 32.7682 22.837C32.6302 23.4542 32.4906 24.0784 32.5398 24.6871C32.2788 25.2538 31.9855 25.8027 31.6624 26.3314C31.6152 26.2293 31.6045 26.0723 31.6503 25.8478C31.6608 25.5727 31.7861 25.1133 31.9258 24.6007L31.9258 24.6007C32.2754 23.3184 32.7156 21.7037 31.6776 21.8117C31.5044 22.533 31.5027 23.3138 31.501 24.1089V24.109C31.4988 25.128 31.4965 26.1706 31.1332 27.1414C30.585 27.9275 29.9681 28.662 29.2911 29.3363C29.0849 29.2365 28.9509 28.8561 28.7959 28.4165C28.6538 28.0132 28.4941 27.5601 28.2452 27.2281C28.9853 27.3432 29.5504 26.6842 29.9534 25.4024C29.4878 25.5538 29.1654 25.2821 28.9161 25.0721C28.6136 24.8171 28.4188 24.653 28.2067 25.4468C27.1615 24.4772 25.6877 22.4132 26.0602 20.857C26.552 19.8534 26.0283 19.9614 25.3563 20.1002C24.9709 20.1797 24.5366 20.2694 24.2172 20.1651C22.5074 19.7033 22.6872 21.7575 22.8477 22.8619C22.6225 23.4104 22.8916 23.7552 23.1594 24.0983L23.1594 24.0983L23.1596 24.0985L23.1596 24.0985L23.1596 24.0986C23.3041 24.2837 23.4482 24.4683 23.514 24.6843C23.7764 24.7396 24.023 24.7073 24.2599 24.6762L24.2601 24.6762C24.7551 24.6113 25.208 24.5519 25.6749 25.3087C26.6868 25.6741 26.472 26.3595 26.2482 27.0736C26.0381 27.7438 25.82 28.4393 26.6012 28.9191C27.2097 29.6882 26.6879 30.4918 25.8756 30.7941C25.9617 29.1505 25.9091 29.1629 25.5516 29.2471C25.3096 29.3042 24.928 29.394 24.3552 29.026C24.5864 29.915 23.7901 30.081 23.3518 29.5978C23.4339 29.3157 23.3668 29.0853 23.3003 28.857L23.3003 28.857L23.3003 28.857C23.2471 28.6745 23.1943 28.4933 23.2186 28.2881C22.8493 28.7877 22.4415 28.3226 22.5266 27.8099C22.4034 27.3391 22.8389 26.9378 23.2135 26.5926L23.2136 26.5926C23.6732 26.1692 24.0413 25.8301 23.1736 25.5503C22.8514 25.1715 22.5952 25.6501 22.3336 26.1389C22.1389 26.5026 21.9412 26.8719 21.7111 26.8978C21.502 26.6927 21.6102 26.4393 21.7264 26.1674L21.7264 26.1673C21.8448 25.8902 21.9713 25.594 21.7785 25.3104C21.7802 24.5601 21.1452 24.8145 20.6223 25.0241C20.1477 25.2143 19.7654 25.3676 20.035 24.6991C20.9068 23.9941 19.9804 23.3549 19.7364 24.5725C19.2225 24.1731 19.631 23.4988 19.9885 22.9088C20.3971 22.2344 20.739 21.6702 19.5598 21.7526C19.2566 22.0755 19.1384 21.9539 18.9811 21.7921L18.9811 21.7921C18.891 21.6994 18.7881 21.5935 18.6302 21.5504C17.1018 21.716 16.9228 20.4308 16.7326 19.0655C16.566 17.8695 16.3908 16.6121 15.2926 16.2146C14.8857 15.7864 14.96 16.0974 15.0451 16.4537C15.0916 16.6486 15.1414 16.857 15.1176 16.9656C13.9357 16.6946 14.0109 17.1912 14.0649 17.5478C14.1161 17.8854 14.1482 18.0975 13.0771 17.4142C13.0979 18.065 13.0353 20.6121 12.2181 19.4815C11.7802 18.8275 11.0962 18.5978 10.4401 18.3774C9.74939 18.1454 9.08969 17.9239 8.78092 17.2285C8.0376 16.5348 8.33085 16.0689 8.68536 15.5057L8.68537 15.5057L8.68551 15.5055L8.68551 15.5055C8.80798 15.3109 8.93773 15.1048 9.03458 14.8736C8.9297 13.8613 9.34606 14.1471 9.81736 14.4706L9.81745 14.4707C10.0171 14.6077 10.2265 14.7515 10.4104 14.8063C10.2781 14.5731 10.1508 14.3719 10.0447 14.2043C9.62304 13.5381 9.53678 13.4018 10.8054 13.8876C10.4651 13.4029 10.6483 12.9996 10.8337 12.5915L10.8337 12.5915L10.8337 12.5914C10.9317 12.3756 11.0304 12.1585 11.0526 11.9272C11.0662 11.7866 10.9964 11.6437 10.9271 11.5021L10.9271 11.502C10.8004 11.2431 10.6758 10.9882 11.0671 10.7587C10.7765 10.3956 9.88706 10.338 9.72973 10.974C9.62698 12.0948 8.38438 11.9765 8.25755 11.117C9.10201 10.8984 9.6623 10.6306 9.4247 9.50161C10.16 8.0489 5.63588 9.592 5.74826 10.3052C5.79523 10.5608 6.03838 10.58 6.26574 10.598L6.26588 10.598L6.26594 10.598C6.5048 10.6168 6.72617 10.6343 6.68423 10.9231C6.46496 11.1333 6.17913 11.0805 5.89726 11.0284C5.49395 10.9538 5.09875 10.8807 4.91826 11.582C4.51298 12.7105 5.45104 12.803 6.25561 12.8824L6.25563 12.8824C6.76098 12.9322 7.21367 12.9769 7.24774 13.2697C7.27295 13.5233 7.45378 13.4712 7.65728 13.4125L7.65731 13.4125C7.81657 13.3666 7.98972 13.3167 8.11306 13.4062C7.7984 13.9271 6.13035 15.7117 5.85262 15.8301C5.97216 16.0929 6.55345 16.4612 7.15663 16.8432L7.15668 16.8432C8.24652 17.5336 9.40772 18.2691 8.04563 18.5103C7.56704 18.5296 7.62207 18.7263 7.6719 18.9045C7.73657 19.1356 7.79249 19.3355 6.66175 19.0756C6.6587 19.4733 7.00748 19.4917 7.29022 19.5066C7.60326 19.5231 7.83537 19.5353 7.41951 20.0534C6.77246 20.9935 7.21316 21.1075 7.67795 21.2277L7.67799 21.2277C8.10116 21.3371 8.54426 21.4517 8.20457 22.1996V22.1914ZM27.2376 12.1041L27.2377 12.1045C27.2947 12.2427 27.3525 12.3828 27.3926 12.5282C25.799 12.1709 31.0194 17.5272 31.1061 11.8614C31.159 11.329 30.7095 10.3578 30.4222 9.84179C29.9163 9.80528 29.5282 9.41495 29.1584 9.04296L29.1583 9.04292C28.7628 8.64514 28.3882 8.26836 27.9129 8.36774C27.3237 8.91823 25.4373 10.7998 27.0716 11.1827C26.9899 11.5038 27.1118 11.7991 27.2376 12.1041ZM8.58563 21.4456L8.58565 21.4455C8.70581 21.0363 8.81543 20.6631 9.02655 21.2169C9.0992 21.4843 9.31322 21.4376 9.60284 21.3744L9.60286 21.3744L9.60288 21.3744C10.0749 21.2715 10.7478 21.1247 11.3368 22.2226C11.1974 22.3338 11.0459 22.4311 10.8944 22.5283L10.8943 22.5284C10.5064 22.7774 10.1183 23.0265 9.93362 23.511C9.67515 24.0927 8.32979 23.5783 8.36511 23.1593C8.48184 22.9096 8.3939 22.7144 8.31486 22.539L8.31484 22.539C8.23626 22.3646 8.16648 22.2098 8.31534 22.0402C8.42881 21.9796 8.50934 21.7053 8.58563 21.4456Z" fill="#94A3B8"/>
</g>
<g filter="url(#filter1_f_4_34401)">
<ellipse cx="18" cy="11.3329" rx="9.33333" ry="6.66667" fill="url(#paint1_linear_4_34401)" style="mix-blend-mode:soft-light"/>
</g>
<g filter="url(#filter2_di_4_34401)">
<ellipse cx="25.5" cy="11.0001" rx="1.5" ry="2" transform="rotate(-22.1932 25.5 11.0001)" fill="#94A3B8"/>
</g>
<g filter="url(#filter3_di_4_34401)">
<ellipse cx="21.7555" cy="17.9185" rx="1.87701" ry="1.30625" transform="rotate(-22.1932 21.7555 17.9185)" fill="#64748B"/>
</g>
<g filter="url(#filter4_di_4_34401)">
<ellipse cx="12.0198" cy="8.87634" rx="1.49447" ry="1.5255" transform="rotate(15.8877 12.0198 8.87634)" fill="#94A3B8"/>
</g>
<g filter="url(#filter5_di_4_34401)">
<ellipse cx="14.0298" cy="30.0545" rx="1.56468" ry="1.60711" transform="rotate(-20.5835 14.0298 30.0545)" fill="#475569"/>
</g>
<g filter="url(#filter6_di_4_34401)">
<ellipse cx="21.9518" cy="25.0825" rx="2.40196" ry="2" transform="rotate(-20.5835 21.9518 25.0825)" fill="#475569"/>
</g>
<g filter="url(#filter7_di_4_34401)">
<ellipse cx="11.5366" cy="20.5951" rx="1.23333" ry="1.02693" transform="rotate(56.5561 11.5366 20.5951)" fill="#64748B"/>
</g>
<g filter="url(#filter8_di_4_34401)">
<ellipse cx="6.51563" cy="23.3951" rx="0.5923" ry="0.49318" transform="rotate(-20.5835 6.51563 23.3951)" fill="#94A3B8"/>
</g>
<g filter="url(#filter9_di_4_34401)">
<ellipse cx="31.7279" cy="15.6699" rx="0.5923" ry="0.49318" transform="rotate(48.1814 31.7279 15.6699)" fill="#94A3B8"/>
</g>
<g filter="url(#filter10_di_4_34401)">
<ellipse cx="28.7625" cy="26.7703" rx="0.5923" ry="0.49318" transform="rotate(48.1814 28.7625 26.7703)" fill="#64748B"/>
</g>
<g filter="url(#filter11_di_4_34401)">
<ellipse cx="19.7279" cy="6.66984" rx="0.5923" ry="0.49318" transform="rotate(20.8278 19.7279 6.66984)" fill="#94A3B8"/>
</g>
<g filter="url(#filter12_di_4_34401)">
<ellipse cx="15.7289" cy="14.6716" rx="0.5923" ry="0.49318" transform="rotate(20.8278 15.7289 14.6716)" fill="#94A3B8"/>
</g>
<g filter="url(#filter13_di_4_34401)">
<ellipse cx="27.729" cy="19.6716" rx="0.5923" ry="0.49318" transform="rotate(94.6584 27.729 19.6716)" fill="#94A3B8"/>
</g>
<g filter="url(#filter14_di_4_34401)">
<ellipse cx="17.5397" cy="22.6304" rx="0.5923" ry="0.49318" transform="rotate(94.6584 17.5397 22.6304)" fill="#94A3B8"/>
</g>
<g filter="url(#filter15_di_4_34401)">
<ellipse cx="20.5397" cy="31.6304" rx="0.5923" ry="0.49318" transform="rotate(94.6584 20.5397 31.6304)" fill="#94A3B8"/>
</g>
<defs>
<filter id="filter0_ii_4_34401" x="2" y="0.999512" width="32" height="34" filterUnits="userSpaceOnUse" color-interpolation-filters="sRGB">
<feFlood flood-opacity="0" result="BackgroundImageFix"/>
<feBlend mode="normal" in="SourceGraphic" in2="BackgroundImageFix" result="shape"/>
<feColorMatrix in="SourceAlpha" type="matrix" values="0 0 0 0 0 0 0 0 0 0 0 0 0 0 0 0 0 0 127 0" result="hardAlpha"/>
<feMorphology radius="1" operator="erode" in="SourceAlpha" result="effect1_innerShadow_4_34401"/>
<feOffset dy="-1"/>
<feGaussianBlur stdDeviation="3"/>
<feComposite in2="hardAlpha" operator="arithmetic" k2="-1" k3="1"/>
<feColorMatrix type="matrix" values="0 0 0 0 0.278431 0 0 0 0 0.333333 0 0 0 0 0.411765 0 0 0 1 0"/>
<feBlend mode="normal" in2="shape" result="effect1_innerShadow_4_34401"/>
<feColorMatrix in="SourceAlpha" type="matrix" values="0 0 0 0 0 0 0 0 0 0 0 0 0 0 0 0 0 0 127 0" result="hardAlpha"/>
<feOffset dy="1"/>
<feGaussianBlur stdDeviation="1"/>
<feComposite in2="hardAlpha" operator="arithmetic" k2="-1" k3="1"/>
<feColorMatrix type="matrix" values="0 0 0 0 0.796078 0 0 0 0 0.835294 0 0 0 0 0.882353 0 0 0 1 0"/>
<feBlend mode="normal" in2="effect1_innerShadow_4_34401" result="effect2_innerShadow_4_34401"/>
</filter>
<filter id="filter1_f_4_34401" x="5.99999" y="1.99959" width="24" height="18.6667" filterUnits="userSpaceOnUse" color-interpolation-filters="sRGB">
<feFlood flood-opacity="0" result="BackgroundImageFix"/>
<feBlend mode="normal" in="SourceGraphic" in2="BackgroundImageFix" result="shape"/>
<feGaussianBlur stdDeviation="1.33333" result="effect1_foregroundBlur_4_34401"/>
</filter>
<filter id="filter2_di_4_34401" x="23.4186" y="9.06299" width="4.16269" height="4.87418" filterUnits="userSpaceOnUse" color-interpolation-filters="sRGB">
<feFlood flood-opacity="0" result="BackgroundImageFix"/>
<feColorMatrix in="SourceAlpha" type="matrix" values="0 0 0 0 0 0 0 0 0 0 0 0 0 0 0 0 0 0 127 0" result="hardAlpha"/>
<feOffset dy="0.5"/>
<feGaussianBlur stdDeviation="0.25"/>
<feComposite in2="hardAlpha" operator="out"/>
<feColorMatrix type="matrix" values="0 0 0 0 0.886275 0 0 0 0 0.909804 0 0 0 0 0.941176 0 0 0 0.7 0"/>
<feBlend mode="normal" in2="BackgroundImageFix" result="effect1_dropShadow_4_34401"/>
<feBlend mode="normal" in="SourceGraphic" in2="effect1_dropShadow_4_34401" result="shape"/>
<feColorMatrix in="SourceAlpha" type="matrix" values="0 0 0 0 0 0 0 0 0 0 0 0 0 0 0 0 0 0 127 0" result="hardAlpha"/>
<feOffset dy="0.5"/>
<feGaussianBlur stdDeviation="0.5"/>
<feComposite in2="hardAlpha" operator="arithmetic" k2="-1" k3="1"/>
<feColorMatrix type="matrix" values="0 0 0 0 0.392157 0 0 0 0 0.454902 0 0 0 0 0.545098 0 0 0 1 0"/>
<feBlend mode="normal" in2="shape" result="effect2_innerShadow_4_34401"/>
</filter>
<filter id="filter3_di_4_34401" x="19.4484" y="16.5163" width="4.61418" height="3.80441" filterUnits="userSpaceOnUse" color-interpolation-filters="sRGB">
<feFlood flood-opacity="0" result="BackgroundImageFix"/>
<feColorMatrix in="SourceAlpha" type="matrix" values="0 0 0 0 0 0 0 0 0 0 0 0 0 0 0 0 0 0 127 0" result="hardAlpha"/>
<feOffset dy="0.5"/>
<feGaussianBlur stdDeviation="0.25"/>
<feComposite in2="hardAlpha" operator="out"/>
<feColorMatrix type="matrix" values="0 0 0 0 0.886275 0 0 0 0 0.909804 0 0 0 0 0.941176 0 0 0 0.7 0"/>
<feBlend mode="normal" in2="BackgroundImageFix" result="effect1_dropShadow_4_34401"/>
<feBlend mode="normal" in="SourceGraphic" in2="effect1_dropShadow_4_34401" result="shape"/>
<feColorMatrix in="SourceAlpha" type="matrix" values="0 0 0 0 0 0 0 0 0 0 0 0 0 0 0 0 0 0 127 0" result="hardAlpha"/>
<feOffset dy="0.5"/>
<feGaussianBlur stdDeviation="0.5"/>
<feComposite in2="hardAlpha" operator="arithmetic" k2="-1" k3="1"/>
<feColorMatrix type="matrix" values="0 0 0 0 0.392157 0 0 0 0 0.454902 0 0 0 0 0.545098 0 0 0 1 0"/>
<feBlend mode="normal" in2="shape" result="effect2_innerShadow_4_34401"/>
</filter>
<filter id="filter4_di_4_34401" x="10.0226" y="7.35275" width="3.9944" height="4.04718" filterUnits="userSpaceOnUse" color-interpolation-filters="sRGB">
<feFlood flood-opacity="0" result="BackgroundImageFix"/>
<feColorMatrix in="SourceAlpha" type="matrix" values="0 0 0 0 0 0 0 0 0 0 0 0 0 0 0 0 0 0 127 0" result="hardAlpha"/>
<feOffset dy="0.5"/>
<feGaussianBlur stdDeviation="0.25"/>
<feComposite in2="hardAlpha" operator="out"/>
<feColorMatrix type="matrix" values="0 0 0 0 0.886275 0 0 0 0 0.909804 0 0 0 0 0.941176 0 0 0 0.7 0"/>
<feBlend mode="normal" in2="BackgroundImageFix" result="effect1_dropShadow_4_34401"/>
<feBlend mode="normal" in="SourceGraphic" in2="effect1_dropShadow_4_34401" result="shape"/>
<feColorMatrix in="SourceAlpha" type="matrix" values="0 0 0 0 0 0 0 0 0 0 0 0 0 0 0 0 0 0 127 0" result="hardAlpha"/>
<feOffset dy="0.5"/>
<feGaussianBlur stdDeviation="0.5"/>
<feComposite in2="hardAlpha" operator="arithmetic" k2="-1" k3="1"/>
<feColorMatrix type="matrix" values="0 0 0 0 0.392157 0 0 0 0 0.454902 0 0 0 0 0.545098 0 0 0 1 0"/>
<feBlend mode="normal" in2="shape" result="effect2_innerShadow_4_34401"/>
</filter>
<filter id="filter5_di_4_34401" x="11.9594" y="28.4521" width="4.14082" height="4.20471" filterUnits="userSpaceOnUse" color-interpolation-filters="sRGB">
<feFlood flood-opacity="0" result="BackgroundImageFix"/>
<feColorMatrix in="SourceAlpha" type="matrix" values="0 0 0 0 0 0 0 0 0 0 0 0 0 0 0 0 0 0 127 0" result="hardAlpha"/>
<feOffset dy="0.5"/>
<feGaussianBlur stdDeviation="0.25"/>
<feComposite in2="hardAlpha" operator="out"/>
<feColorMatrix type="matrix" values="0 0 0 0 0.886275 0 0 0 0 0.909804 0 0 0 0 0.941176 0 0 0 0.15 0"/>
<feBlend mode="normal" in2="BackgroundImageFix" result="effect1_dropShadow_4_34401"/>
<feBlend mode="normal" in="SourceGraphic" in2="effect1_dropShadow_4_34401" result="shape"/>
<feColorMatrix in="SourceAlpha" type="matrix" values="0 0 0 0 0 0 0 0 0 0 0 0 0 0 0 0 0 0 127 0" result="hardAlpha"/>
<feOffset dy="0.5"/>
<feGaussianBlur stdDeviation="0.5"/>
<feComposite in2="hardAlpha" operator="arithmetic" k2="-1" k3="1"/>
<feColorMatrix type="matrix" values="0 0 0 0 0.392157 0 0 0 0 0.454902 0 0 0 0 0.545098 0 0 0 1 0"/>
<feBlend mode="normal" in2="shape" result="effect2_innerShadow_4_34401"/>
</filter>
<filter id="filter6_di_4_34401" x="19.0951" y="23.0281" width="5.71326" height="5.10892" filterUnits="userSpaceOnUse" color-interpolation-filters="sRGB">
<feFlood flood-opacity="0" result="BackgroundImageFix"/>
<feColorMatrix in="SourceAlpha" type="matrix" values="0 0 0 0 0 0 0 0 0 0 0 0 0 0 0 0 0 0 127 0" result="hardAlpha"/>
<feOffset dy="0.5"/>
<feGaussianBlur stdDeviation="0.25"/>
<feComposite in2="hardAlpha" operator="out"/>
<feColorMatrix type="matrix" values="0 0 0 0 0.886275 0 0 0 0 0.909804 0 0 0 0 0.941176 0 0 0 0.3 0"/>
<feBlend mode="normal" in2="BackgroundImageFix" result="effect1_dropShadow_4_34401"/>
<feBlend mode="normal" in="SourceGraphic" in2="effect1_dropShadow_4_34401" result="shape"/>
<feColorMatrix in="SourceAlpha" type="matrix" values="0 0 0 0 0 0 0 0 0 0 0 0 0 0 0 0 0 0 127 0" result="hardAlpha"/>
<feOffset dy="0.5"/>
<feGaussianBlur stdDeviation="0.5"/>
<feComposite in2="hardAlpha" operator="arithmetic" k2="-1" k3="1"/>
<feColorMatrix type="matrix" values="0 0 0 0 0.392157 0 0 0 0 0.454902 0 0 0 0 0.545098 0 0 0 1 0"/>
<feBlend mode="normal" in2="shape" result="effect2_innerShadow_4_34401"/>
</filter>
<filter id="filter7_di_4_34401" x="9.94283" y="19.4204" width="3.18759" height="3.3494" filterUnits="userSpaceOnUse" color-interpolation-filters="sRGB">
<feFlood flood-opacity="0" result="BackgroundImageFix"/>
<feColorMatrix in="SourceAlpha" type="matrix" values="0 0 0 0 0 0 0 0 0 0 0 0 0 0 0 0 0 0 127 0" result="hardAlpha"/>
<feOffset dy="0.5"/>
<feGaussianBlur stdDeviation="0.25"/>
<feComposite in2="hardAlpha" operator="out"/>
<feColorMatrix type="matrix" values="0 0 0 0 0.886275 0 0 0 0 0.909804 0 0 0 0 0.941176 0 0 0 0.7 0"/>
<feBlend mode="normal" in2="BackgroundImageFix" result="effect1_dropShadow_4_34401"/>
<feBlend mode="normal" in="SourceGraphic" in2="effect1_dropShadow_4_34401" result="shape"/>
<feColorMatrix in="SourceAlpha" type="matrix" values="0 0 0 0 0 0 0 0 0 0 0 0 0 0 0 0 0 0 127 0" result="hardAlpha"/>
<feOffset dy="0.5"/>
<feGaussianBlur stdDeviation="0.5"/>
<feComposite in2="hardAlpha" operator="arithmetic" k2="-1" k3="1"/>
<feColorMatrix type="matrix" values="0 0 0 0 0.392157 0 0 0 0 0.454902 0 0 0 0 0.545098 0 0 0 1 0"/>
<feBlend mode="normal" in2="shape" result="effect2_innerShadow_4_34401"/>
</filter>
<filter id="filter8_di_4_34401" x="5.43451" y="22.8885" width="2.16223" height="2.01321" filterUnits="userSpaceOnUse" color-interpolation-filters="sRGB">
<feFlood flood-opacity="0" result="BackgroundImageFix"/>
<feColorMatrix in="SourceAlpha" type="matrix" values="0 0 0 0 0 0 0 0 0 0 0 0 0 0 0 0 0 0 127 0" result="hardAlpha"/>
<feOffset dy="0.5"/>
<feGaussianBlur stdDeviation="0.25"/>
<feComposite in2="hardAlpha" operator="out"/>
<feColorMatrix type="matrix" values="0 0 0 0 0.886275 0 0 0 0 0.909804 0 0 0 0 0.941176 0 0 0 0.2 0"/>
<feBlend mode="normal" in2="BackgroundImageFix" result="effect1_dropShadow_4_34401"/>
<feBlend mode="normal" in="SourceGraphic" in2="effect1_dropShadow_4_34401" result="shape"/>
<feColorMatrix in="SourceAlpha" type="matrix" values="0 0 0 0 0 0 0 0 0 0 0 0 0 0 0 0 0 0 127 0" result="hardAlpha"/>
<feOffset dy="0.5"/>
<feGaussianBlur stdDeviation="0.5"/>
<feComposite in2="hardAlpha" operator="arithmetic" k2="-1" k3="1"/>
<feColorMatrix type="matrix" values="0 0 0 0 0.392157 0 0 0 0 0.454902 0 0 0 0 0.545098 0 0 0 1 0"/>
<feBlend mode="normal" in2="shape" result="effect2_innerShadow_4_34401"/>
</filter>
<filter id="filter9_di_4_34401" x="30.6884" y="15.1194" width="2.07899" height="2.10095" filterUnits="userSpaceOnUse" color-interpolation-filters="sRGB">
<feFlood flood-opacity="0" result="BackgroundImageFix"/>
<feColorMatrix in="SourceAlpha" type="matrix" values="0 0 0 0 0 0 0 0 0 0 0 0 0 0 0 0 0 0 127 0" result="hardAlpha"/>
<feOffset dy="0.5"/>
<feGaussianBlur stdDeviation="0.25"/>
<feComposite in2="hardAlpha" operator="out"/>
<feColorMatrix type="matrix" values="0 0 0 0 0.886275 0 0 0 0 0.909804 0 0 0 0 0.941176 0 0 0 0.2 0"/>
<feBlend mode="normal" in2="BackgroundImageFix" result="effect1_dropShadow_4_34401"/>
<feBlend mode="normal" in="SourceGraphic" in2="effect1_dropShadow_4_34401" result="shape"/>
<feColorMatrix in="SourceAlpha" type="matrix" values="0 0 0 0 0 0 0 0 0 0 0 0 0 0 0 0 0 0 127 0" result="hardAlpha"/>
<feOffset dy="0.5"/>
<feGaussianBlur stdDeviation="0.5"/>
<feComposite in2="hardAlpha" operator="arithmetic" k2="-1" k3="1"/>
<feColorMatrix type="matrix" values="0 0 0 0 0.392157 0 0 0 0 0.454902 0 0 0 0 0.545098 0 0 0 1 0"/>
<feBlend mode="normal" in2="shape" result="effect2_innerShadow_4_34401"/>
</filter>
<filter id="filter10_di_4_34401" x="27.723" y="26.2198" width="2.07899" height="2.10095" filterUnits="userSpaceOnUse" color-interpolation-filters="sRGB">
<feFlood flood-opacity="0" result="BackgroundImageFix"/>
<feColorMatrix in="SourceAlpha" type="matrix" values="0 0 0 0 0 0 0 0 0 0 0 0 0 0 0 0 0 0 127 0" result="hardAlpha"/>
<feOffset dy="0.5"/>
<feGaussianBlur stdDeviation="0.25"/>
<feComposite in2="hardAlpha" operator="out"/>
<feColorMatrix type="matrix" values="0 0 0 0 0.886275 0 0 0 0 0.909804 0 0 0 0 0.941176 0 0 0 0.2 0"/>
<feBlend mode="normal" in2="BackgroundImageFix" result="effect1_dropShadow_4_34401"/>
<feBlend mode="normal" in="SourceGraphic" in2="effect1_dropShadow_4_34401" result="shape"/>
<feColorMatrix in="SourceAlpha" type="matrix" values="0 0 0 0 0 0 0 0 0 0 0 0 0 0 0 0 0 0 127 0" result="hardAlpha"/>
<feOffset dy="0.5"/>
<feGaussianBlur stdDeviation="0.5"/>
<feComposite in2="hardAlpha" operator="arithmetic" k2="-1" k3="1"/>
<feColorMatrix type="matrix" values="0 0 0 0 0.392157 0 0 0 0 0.454902 0 0 0 0 0.545098 0 0 0 1 0"/>
<feBlend mode="normal" in2="shape" result="effect2_innerShadow_4_34401"/>
</filter>
<filter id="filter11_di_4_34401" x="18.647" y="6.16293" width="2.16171" height="2.01382" filterUnits="userSpaceOnUse" color-interpolation-filters="sRGB">
<feFlood flood-opacity="0" result="BackgroundImageFix"/>
<feColorMatrix in="SourceAlpha" type="matrix" values="0 0 0 0 0 0 0 0 0 0 0 0 0 0 0 0 0 0 127 0" result="hardAlpha"/>
<feOffset dy="0.5"/>
<feGaussianBlur stdDeviation="0.25"/>
<feComposite in2="hardAlpha" operator="out"/>
<feColorMatrix type="matrix" values="0 0 0 0 0.886275 0 0 0 0 0.909804 0 0 0 0 0.941176 0 0 0 0.7 0"/>
<feBlend mode="normal" in2="BackgroundImageFix" result="effect1_dropShadow_4_34401"/>
<feBlend mode="normal" in="SourceGraphic" in2="effect1_dropShadow_4_34401" result="shape"/>
<feColorMatrix in="SourceAlpha" type="matrix" values="0 0 0 0 0 0 0 0 0 0 0 0 0 0 0 0 0 0 127 0" result="hardAlpha"/>
<feOffset dy="0.5"/>
<feGaussianBlur stdDeviation="0.5"/>
<feComposite in2="hardAlpha" operator="arithmetic" k2="-1" k3="1"/>
<feColorMatrix type="matrix" values="0 0 0 0 0.392157 0 0 0 0 0.454902 0 0 0 0 0.545098 0 0 0 1 0"/>
<feBlend mode="normal" in2="shape" result="effect2_innerShadow_4_34401"/>
</filter>
<filter id="filter12_di_4_34401" x="14.6481" y="14.1646" width="2.16171" height="2.01382" filterUnits="userSpaceOnUse" color-interpolation-filters="sRGB">
<feFlood flood-opacity="0" result="BackgroundImageFix"/>
<feColorMatrix in="SourceAlpha" type="matrix" values="0 0 0 0 0 0 0 0 0 0 0 0 0 0 0 0 0 0 127 0" result="hardAlpha"/>
<feOffset dy="0.5"/>
<feGaussianBlur stdDeviation="0.25"/>
<feComposite in2="hardAlpha" operator="out"/>
<feColorMatrix type="matrix" values="0 0 0 0 0.886275 0 0 0 0 0.909804 0 0 0 0 0.941176 0 0 0 0.7 0"/>
<feBlend mode="normal" in2="BackgroundImageFix" result="effect1_dropShadow_4_34401"/>
<feBlend mode="normal" in="SourceGraphic" in2="effect1_dropShadow_4_34401" result="shape"/>
<feColorMatrix in="SourceAlpha" type="matrix" values="0 0 0 0 0 0 0 0 0 0 0 0 0 0 0 0 0 0 127 0" result="hardAlpha"/>
<feOffset dy="0.5"/>
<feGaussianBlur stdDeviation="0.5"/>
<feComposite in2="hardAlpha" operator="arithmetic" k2="-1" k3="1"/>
<feColorMatrix type="matrix" values="0 0 0 0 0.392157 0 0 0 0 0.454902 0 0 0 0 0.545098 0 0 0 1 0"/>
<feBlend mode="normal" in2="shape" result="effect2_innerShadow_4_34401"/>
</filter>
<filter id="filter13_di_4_34401" x="26.735" y="19.0799" width="1.98787" height="2.18344" filterUnits="userSpaceOnUse" color-interpolation-filters="sRGB">
<feFlood flood-opacity="0" result="BackgroundImageFix"/>
<feColorMatrix in="SourceAlpha" type="matrix" values="0 0 0 0 0 0 0 0 0 0 0 0 0 0 0 0 0 0 127 0" result="hardAlpha"/>
<feOffset dy="0.5"/>
<feGaussianBlur stdDeviation="0.25"/>
<feComposite in2="hardAlpha" operator="out"/>
<feColorMatrix type="matrix" values="0 0 0 0 0.886275 0 0 0 0 0.909804 0 0 0 0 0.941176 0 0 0 0.4 0"/>
<feBlend mode="normal" in2="BackgroundImageFix" result="effect1_dropShadow_4_34401"/>
<feBlend mode="normal" in="SourceGraphic" in2="effect1_dropShadow_4_34401" result="shape"/>
<feColorMatrix in="SourceAlpha" type="matrix" values="0 0 0 0 0 0 0 0 0 0 0 0 0 0 0 0 0 0 127 0" result="hardAlpha"/>
<feOffset dy="0.5"/>
<feGaussianBlur stdDeviation="0.5"/>
<feComposite in2="hardAlpha" operator="arithmetic" k2="-1" k3="1"/>
<feColorMatrix type="matrix" values="0 0 0 0 0.392157 0 0 0 0 0.454902 0 0 0 0 0.545098 0 0 0 1 0"/>
<feBlend mode="normal" in2="shape" result="effect2_innerShadow_4_34401"/>
</filter>
<filter id="filter14_di_4_34401" x="16.5457" y="22.0386" width="1.98787" height="2.18344" filterUnits="userSpaceOnUse" color-interpolation-filters="sRGB">
<feFlood flood-opacity="0" result="BackgroundImageFix"/>
<feColorMatrix in="SourceAlpha" type="matrix" values="0 0 0 0 0 0 0 0 0 0 0 0 0 0 0 0 0 0 127 0" result="hardAlpha"/>
<feOffset dy="0.5"/>
<feGaussianBlur stdDeviation="0.25"/>
<feComposite in2="hardAlpha" operator="out"/>
<feColorMatrix type="matrix" values="0 0 0 0 0.886275 0 0 0 0 0.909804 0 0 0 0 0.941176 0 0 0 0.4 0"/>
<feBlend mode="normal" in2="BackgroundImageFix" result="effect1_dropShadow_4_34401"/>
<feBlend mode="normal" in="SourceGraphic" in2="effect1_dropShadow_4_34401" result="shape"/>
<feColorMatrix in="SourceAlpha" type="matrix" values="0 0 0 0 0 0 0 0 0 0 0 0 0 0 0 0 0 0 127 0" result="hardAlpha"/>
<feOffset dy="0.5"/>
<feGaussianBlur stdDeviation="0.5"/>
<feComposite in2="hardAlpha" operator="arithmetic" k2="-1" k3="1"/>
<feColorMatrix type="matrix" values="0 0 0 0 0.392157 0 0 0 0 0.454902 0 0 0 0 0.545098 0 0 0 1 0"/>
<feBlend mode="normal" in2="shape" result="effect2_innerShadow_4_34401"/>
</filter>
<filter id="filter15_di_4_34401" x="19.5457" y="31.0386" width="1.98787" height="2.18344" filterUnits="userSpaceOnUse" color-interpolation-filters="sRGB">
<feFlood flood-opacity="0" result="BackgroundImageFix"/>
<feColorMatrix in="SourceAlpha" type="matrix" values="0 0 0 0 0 0 0 0 0 0 0 0 0 0 0 0 0 0 127 0" result="hardAlpha"/>
<feOffset dy="0.5"/>
<feGaussianBlur stdDeviation="0.25"/>
<feComposite in2="hardAlpha" operator="out"/>
<feColorMatrix type="matrix" values="0 0 0 0 0.886275 0 0 0 0 0.909804 0 0 0 0 0.941176 0 0 0 0.2 0"/>
<feBlend mode="normal" in2="BackgroundImageFix" result="effect1_dropShadow_4_34401"/>
<feBlend mode="normal" in="SourceGraphic" in2="effect1_dropShadow_4_34401" result="shape"/>
<feColorMatrix in="SourceAlpha" type="matrix" values="0 0 0 0 0 0 0 0 0 0 0 0 0 0 0 0 0 0 127 0" result="hardAlpha"/>
<feOffset dy="0.5"/>
<feGaussianBlur stdDeviation="0.5"/>
<feComposite in2="hardAlpha" operator="arithmetic" k2="-1" k3="1"/>
<feColorMatrix type="matrix" values="0 0 0 0 0.392157 0 0 0 0 0.454902 0 0 0 0 0.545098 0 0 0 1 0"/>
<feBlend mode="normal" in2="shape" result="effect2_innerShadow_4_34401"/>
</filter>
<linearGradient id="paint0_linear_4_34401" x1="18" y1="1.99951" x2="18" y2="33.9995" gradientUnits="userSpaceOnUse">
<stop stop-color="#E2E8F0"/>
<stop offset="1" stop-color="#64748B"/>
</linearGradient>
<linearGradient id="paint1_linear_4_34401" x1="18" y1="4.66626" x2="18" y2="17.9996" gradientUnits="userSpaceOnUse">
<stop stop-color="#F1F5F9"/>
<stop offset="1" stop-color="#E2E8F0" stop-opacity="0"/>
</linearGradient>
</defs>
</svg>
